<svg 
    width="20px" 
    height="20px" 
    viewBox="0 0 20 20"
    xmlns="http://www.w3.org/2000/svg"
>
                    <path d="M9.6,-3.33066907e-16 C4.298,-3.33066907e-16 -3.33066907e-16,4.298 -3.33066907e-16,9.6 C-3.33066907e-16,13.0297497 1.83009327,16.1988739 4.80043295,17.913594 C7.77077264,19.6283142 11.430272,19.6281236 14.4004331,17.913094 C17.3705941,16.1980645 19.2,13.0287497 19.2,9.599 C19.2,4.298 14.901,-3.33066907e-16 9.6,-3.33066907e-16 Z M9.6,17.199 C6.86418694,17.2303835 4.32265454,15.7888299 2.94560821,13.4246384 C1.56856187,11.0604469 1.56856187,8.13855308 2.94560821,5.77436159 C4.32265454,3.41017009 6.86418694,1.96861652 9.6,2 C12.3358131,1.96861652 14.8773455,3.41017009 16.2543918,5.77436159 C17.6314381,8.13855308 17.6314381,11.0604469 16.2543918,13.4246384 C14.8773455,15.7888299 12.3358131,17.2303835 9.6,17.199 L9.6,17.199 Z M7.101,9.35 C7.929,9.35 8.6,8.567 8.6,7.6 C8.6,6.633 7.928,5.85 7.1,5.85 C6.272,5.85 5.6,6.633 5.6,7.6 C5.6,8.567 6.272,9.35 7.101,9.35 L7.101,9.35 Z M12.1,9.35 C12.929,9.35 13.6,8.567 13.6,7.6 C13.6,6.633 12.928,5.85 12.1,5.85 C11.272,5.85 10.6,6.634 10.6,7.6 C10.6,8.566 11.272,9.35 12.1,9.35 Z M13.941,10.936 C13.5738871,10.750794 13.1260663,10.8929593 12.933,11.256 C12.899,11.322 12.064,12.849 9.601,12.849 C7.15,12.849 6.31,11.336 6.268,11.257 C6.08077546,10.8872454 5.62925464,10.7392755 5.25950001,10.9265 C4.88974538,11.1137245 4.74177549,11.5652454 4.929,11.935 C4.979,12.034 6.177,14.349 9.601,14.349 C13.026,14.349 14.222,12.033 14.271,11.934 C14.4544367,11.5672081 14.3069376,11.1211351 13.941,10.936 L13.941,10.936 Z" id="Shape"></path>
</svg>
