
<svg width="82px" height="63px" viewBox="0 0 82 63" version="1.1" xmlns="http://www.w3.org/2000/svg" xmlns:xlink="http://www.w3.org/1999/xlink">
    <defs>
        <polygon id="path-1no9n_0br--1" points="0 0 31.133199 0 31.133199 46.7363593 0 46.7363593"></polygon>
        <polygon id="path-1no9n_0br--3" points="0 7.10542736e-15 32.5781709 7.10542736e-15 32.5781709 47.2096839 0 47.2096839"></polygon>
        <polygon id="path-1no9n_0br--5" points="1.42108547e-14 0 25.3607 0 25.3607 18.656 1.42108547e-14 18.656"></polygon>
    </defs>
    <g id="Page-1" stroke="none" stroke-width="1" fill="none" fill-rule="evenodd">
        <g id="Topics-Menu---rev9" transform="translate(-269.000000, -77.000000)">
            <g id="Group-116" transform="translate(269.000000, 77.000000)">
                <g id="Group-3" transform="translate(10.728660, 15.277641)">
                    <mask id="mask-1no9n_0br--2" fill="white">
                        <use xlink:href="#path-1no9n_0br--1"></use>
                    </mask>
                    <g id="Clip-2"></g>
                    <path d="M29.9589398,42.6742593 L9.64193976,46.7082593 C8.85193976,46.8652593 8.08493976,46.3522593 7.92793976,45.5622593 L0.0279397615,5.77625927 C-0.128060238,4.98625927 0.384939762,4.21825927 1.17393976,4.06225927 L21.4919398,0.0282592676 C22.2819398,-0.128740732 23.0489398,0.384259268 23.2059398,1.17425927 L31.1049398,40.9602593 C31.2619398,41.7502593 30.7489398,42.5172593 29.9589398,42.6742593" id="Fill-1" fill="#000000" mask="url(#mask-1no9n_0br--2)"></path>
                </g>
                <path d="M39.6984,57.1847 L20.9914,60.8987 C20.2494,61.0467 19.5284,60.5637 19.3804,59.8217 L11.8154,21.7177 C11.6684,20.9757 12.1504,20.2547 12.8924,20.1067 L31.5994,16.3927 C32.3414,16.2457 33.0624,16.7277 33.2094,17.4697 L40.7754,55.5747 C40.9224,56.3167 40.4404,57.0377 39.6984,57.1847 Z" id="Stroke-4" stroke="#434345" stroke-width="0.108"></path>
                <path d="M23.1341,20.2155 C23.1891,20.4905 23.0101,20.7575 22.7351,20.8125 C22.4601,20.8665 22.1931,20.6885 22.1381,20.4135 C22.0841,20.1385 22.2621,19.8715 22.5371,19.8165 C22.8121,19.7615 23.0791,19.9405 23.1341,20.2155" id="Fill-6" fill="#3F3F40"></path>
                <path d="M21.7129,20.4977 C21.7369,20.6197 21.6579,20.7377 21.5359,20.7617 C21.4149,20.7857 21.2969,20.7067 21.2719,20.5847 C21.2479,20.4637 21.3269,20.3457 21.4489,20.3207 C21.5709,20.2967 21.6889,20.3757 21.7129,20.4977" id="Fill-8" fill="#3F3F40"></path>
                <path d="M17.697,28.6011 L15.134,29.1101 C14.805,29.1751 14.485,28.9621 14.42,28.6331 L13.911,26.0691 C13.846,25.7401 14.059,25.4211 14.388,25.3561 L16.952,24.8471 C17.28,24.7811 17.6,24.9951 17.665,25.3241 L18.174,27.8871 C18.239,28.2161 18.026,28.5361 17.697,28.6011" id="Fill-10" fill="#FBB648"></path>
                <path d="M22.7607,27.5957 L20.1977,28.1047 C19.8687,28.1697 19.5487,27.9567 19.4837,27.6277 L18.9747,25.0637 C18.9097,24.7357 19.1227,24.4157 19.4517,24.3507 L22.0157,23.8417 C22.3437,23.7757 22.6637,23.9897 22.7287,24.3187 L23.2377,26.8817 C23.3027,27.2107 23.0897,27.5307 22.7607,27.5957" id="Fill-12" fill="#F3783E"></path>
                <path d="M27.8244,26.5903 L25.2614,27.0993 C24.9324,27.1643 24.6124,26.9513 24.5474,26.6223 L24.0384,24.0583 C23.9734,23.7293 24.1864,23.4103 24.5154,23.3453 L27.0794,22.8363 C27.4074,22.7703 27.7274,22.9843 27.7924,23.3133 L28.3014,25.8763 C28.3664,26.2053 28.1534,26.5253 27.8244,26.5903" id="Fill-14" fill="#F59184"></path>
                <path d="M32.8881,25.585 L30.3251,26.094 C29.9961,26.159 29.6761,25.946 29.6111,25.617 L29.1021,23.053 C29.0371,22.724 29.2501,22.405 29.5791,22.34 L32.1431,21.831 C32.4711,21.765 32.7911,21.979 32.8561,22.308 L33.3651,24.871 C33.4301,25.2 33.2171,25.52 32.8881,25.585" id="Fill-16" fill="#EE403A"></path>
                <path d="M18.7379,33.8433 L16.1749,34.3523 C15.8459,34.4173 15.5259,34.2043 15.4609,33.8753 L14.9519,31.3113 C14.8869,30.9823 15.0999,30.6633 15.4289,30.5983 L17.9929,30.0893 C18.3209,30.0233 18.6409,30.2373 18.7059,30.5663 L19.2149,33.1293 C19.2799,33.4583 19.0669,33.7783 18.7379,33.8433" id="Fill-18" fill="#5F7455"></path>
                <path d="M23.8015,32.8379 L21.2385,33.3469 C20.9095,33.4119 20.5895,33.1989 20.5245,32.8699 L20.0155,30.3059 C19.9505,29.9769 20.1635,29.6579 20.4925,29.5929 L23.0565,29.0839 C23.3845,29.0179 23.7045,29.2319 23.7695,29.5609 L24.2785,32.1239 C24.3435,32.4529 24.1305,32.7729 23.8015,32.8379" id="Fill-20" fill="#A2AF58"></path>
                <path d="M28.8652,31.8325 L26.3022,32.3415 C25.9732,32.4065 25.6532,32.1935 25.5882,31.8645 L25.0792,29.3005 C25.0142,28.9715 25.2272,28.6525 25.5562,28.5875 L28.1202,28.0785 C28.4482,28.0125 28.7682,28.2265 28.8332,28.5555 L29.3422,31.1185 C29.4072,31.4475 29.1942,31.7675 28.8652,31.8325" id="Fill-22" fill="#9080A8"></path>
                <path d="M33.9289,30.8271 L31.3659,31.3361 C31.0369,31.4011 30.7169,31.1881 30.6519,30.8591 L30.1429,28.2951 C30.0779,27.9661 30.2909,27.6471 30.6199,27.5821 L33.1839,27.0731 C33.5119,27.0071 33.8319,27.2211 33.8969,27.5501 L34.4059,30.1131 C34.4709,30.4421 34.2579,30.7621 33.9289,30.8271" id="Fill-24" fill="#5D76A0"></path>
                <path d="M19.7787,39.0854 L17.2157,39.5944 C16.8867,39.6594 16.5667,39.4464 16.5017,39.1174 L15.9927,36.5534 C15.9277,36.2244 16.1407,35.9054 16.4697,35.8404 L19.0337,35.3314 C19.3617,35.2654 19.6817,35.4794 19.7467,35.8084 L20.2557,38.3714 C20.3207,38.7004 20.1077,39.0204 19.7787,39.0854" id="Fill-26" fill="#3AA1C7"></path>
                <path d="M24.8423,38.0801 L22.2793,38.5891 C21.9503,38.6541 21.6303,38.4411 21.5653,38.1121 L21.0563,35.5481 C20.9913,35.2191 21.2043,34.9001 21.5333,34.8351 L24.0973,34.3261 C24.4253,34.2601 24.7453,34.4741 24.8103,34.8031 L25.3193,37.3661 C25.3843,37.6951 25.1713,38.0151 24.8423,38.0801" id="Fill-28" fill="#FBD2B3"></path>
                <path d="M29.906,37.0747 L27.343,37.5837 C27.014,37.6487 26.694,37.4357 26.629,37.1067 L26.12,34.5427 C26.055,34.2137 26.268,33.8947 26.597,33.8297 L29.161,33.3207 C29.489,33.2547 29.809,33.4687 29.874,33.7977 L30.383,36.3607 C30.448,36.6897 30.235,37.0097 29.906,37.0747" id="Fill-30" fill="#7E5B59"></path>
                <path d="M34.9697,36.0693 L32.4067,36.5783 C32.0777,36.6433 31.7577,36.4303 31.6927,36.1013 L31.1837,33.5373 C31.1187,33.2083 31.3317,32.8893 31.6607,32.8243 L34.2247,32.3153 C34.5527,32.2493 34.8727,32.4633 34.9377,32.7923 L35.4467,35.3553 C35.5117,35.6843 35.2987,36.0043 34.9697,36.0693" id="Fill-32" fill="#B25F46"></path>
                <path d="M20.8195,44.3276 L18.2565,44.8366 C17.9275,44.9016 17.6075,44.6886 17.5425,44.3596 L17.0335,41.7956 C16.9685,41.4666 17.1815,41.1476 17.5105,41.0826 L20.0745,40.5736 C20.4025,40.5076 20.7225,40.7216 20.7875,41.0506 L21.2965,43.6136 C21.3615,43.9426 21.1485,44.2626 20.8195,44.3276" id="Fill-34" fill="#DDCF21"></path>
                <path d="M25.8832,43.3223 L23.3202,43.8313 C22.9912,43.8963 22.6712,43.6833 22.6062,43.3543 L22.0972,40.7903 C22.0322,40.4623 22.2452,40.1423 22.5742,40.0773 L25.1382,39.5683 C25.4662,39.5023 25.7862,39.7163 25.8512,40.0453 L26.3602,42.6083 C26.4252,42.9373 26.2122,43.2573 25.8832,43.3223" id="Fill-36" fill="#A43157"></path>
                <path d="M30.9468,42.3169 L28.3838,42.8259 C28.0548,42.8909 27.7348,42.6779 27.6698,42.3489 L27.1608,39.7849 C27.0958,39.4559 27.3088,39.1369 27.6378,39.0719 L30.2018,38.5629 C30.5298,38.4969 30.8498,38.7109 30.9148,39.0399 L31.4238,41.6029 C31.4888,41.9319 31.2758,42.2519 30.9468,42.3169" id="Fill-38" fill="#EA246E"></path>
                <path d="M36.0105,41.3115 L33.4475,41.8205 C33.1185,41.8855 32.7985,41.6725 32.7335,41.3435 L32.2245,38.7795 C32.1595,38.4505 32.3725,38.1315 32.7015,38.0665 L35.2655,37.5575 C35.5935,37.4915 35.9135,37.7055 35.9785,38.0345 L36.4875,40.5975 C36.5525,40.9265 36.3395,41.2465 36.0105,41.3115" id="Fill-40" fill="#78A7B2"></path>
                <path d="M21.8603,49.5698 L19.2973,50.0788 C18.9683,50.1438 18.6483,49.9308 18.5833,49.6018 L18.0743,47.0378 C18.0093,46.7088 18.2223,46.3898 18.5513,46.3248 L21.1153,45.8158 C21.4433,45.7498 21.7633,45.9638 21.8283,46.2928 L22.3373,48.8558 C22.4023,49.1848 22.1893,49.5048 21.8603,49.5698" id="Fill-42" fill="#624D7D"></path>
                <path d="M26.924,48.5645 L24.361,49.0735 C24.032,49.1385 23.712,48.9255 23.647,48.5965 L23.138,46.0325 C23.073,45.7035 23.286,45.3845 23.615,45.3195 L26.179,44.8105 C26.507,44.7445 26.827,44.9585 26.892,45.2875 L27.401,47.8505 C27.466,48.1795 27.253,48.4995 26.924,48.5645" id="Fill-44" fill="#3E7778"></path>
                <path d="M31.9876,47.5591 L29.4246,48.0681 C29.0956,48.1331 28.7756,47.9201 28.7106,47.5911 L28.2016,45.0271 C28.1366,44.6981 28.3496,44.3791 28.6786,44.3141 L31.2426,43.8051 C31.5706,43.7391 31.8906,43.9531 31.9556,44.2821 L32.4646,46.8451 C32.5296,47.1741 32.3166,47.4941 31.9876,47.5591" id="Fill-46" fill="#FABB70"></path>
                <path d="M37.0513,46.5537 L34.4883,47.0627 C34.1593,47.1277 33.8393,46.9147 33.7743,46.5857 L33.2653,44.0217 C33.2003,43.6927 33.4133,43.3737 33.7423,43.3087 L36.3063,42.7997 C36.6343,42.7337 36.9543,42.9477 37.0193,43.2767 L37.5283,45.8397 C37.5933,46.1687 37.3803,46.4887 37.0513,46.5537" id="Fill-48" fill="#EE6D89"></path>
                <path d="M22.9011,54.812 L20.3381,55.321 C20.0091,55.386 19.6891,55.173 19.6241,54.844 L19.1151,52.28 C19.0501,51.951 19.2631,51.632 19.5921,51.567 L22.1561,51.058 C22.4841,50.992 22.8041,51.206 22.8691,51.535 L23.3781,54.098 C23.4431,54.427 23.2301,54.747 22.9011,54.812" id="Fill-50" fill="#F9AC1E"></path>
                <path d="M27.9648,53.8066 L25.4018,54.3156 C25.0728,54.3806 24.7528,54.1676 24.6878,53.8386 L24.1788,51.2746 C24.1138,50.9456 24.3268,50.6266 24.6558,50.5616 L27.2198,50.0526 C27.5478,49.9866 27.8678,50.2006 27.9328,50.5296 L28.4418,53.0926 C28.5068,53.4216 28.2938,53.7416 27.9648,53.8066" id="Fill-52" fill="#F7BABA"></path>
                <path d="M0,32.5766 C0,37.5206 5.259,41.5286 11.746,41.5286 C18.233,41.5286 23.492,37.5206 23.492,32.5766 C23.492,27.6326 18.233,23.6246 11.746,23.6246 C5.259,23.6246 0,27.6326 0,32.5766" id="Fill-54" fill="#FFFFFF"></path>
                <polygon id="Fill-56" fill="#FFFFFF" points="20.7341 35.4031 23.7351 41.6481 16.1321 38.1651"></polygon>
                <g id="Group-60" transform="translate(43.248913, 0.000000)">
                    <mask id="mask-1no9n_0br--4" fill="white">
                        <use xlink:href="#path-1no9n_0br--3"></use>
                    </mask>
                    <g id="Clip-59"></g>
                    <path d="M21.250087,47.1686 L1.11508705,42.3036 C0.333087047,42.1146 -0.147912953,41.3266 0.041087047,40.5436 L9.56808705,1.1156 C9.75708705,0.3326 10.545087,-0.1484 11.328087,0.0406 L31.462087,4.9066 C32.245087,5.0956 32.726087,5.8836 32.537087,6.6656 L23.009087,46.0936 C22.820087,46.8766 22.033087,47.3576 21.250087,47.1686" id="Fill-58" fill="#000000" mask="url(#mask-1no9n_0br--4)"></path>
                </g>
                <path d="M63.9231,46.0571 L45.3841,41.5771 C44.6491,41.4001 44.1971,40.6591 44.3741,39.9241 L53.4991,2.1621 C53.6771,1.4271 54.4171,0.9751 55.1521,1.1531 L73.6911,5.6321 C74.4261,5.8101 74.8791,6.5501 74.7011,7.2851 L65.5761,45.0471 C65.3991,45.7831 64.6581,46.2351 63.9231,46.0571 Z" id="Stroke-61" stroke="#434345" stroke-width="0.108"></path>
                <path d="M64.4031,5.5495 C64.3371,5.8215 64.0631,5.9895 63.7901,5.9235 C63.5181,5.8575 63.3511,5.5835 63.4161,5.3115 C63.4821,5.0385 63.7561,4.8715 64.0291,4.9365 C64.3011,5.0025 64.4691,5.2775 64.4031,5.5495" id="Fill-63" fill="#3F3F40"></path>
                <path d="M62.9947,5.2092 C62.9657,5.3302 62.8447,5.4042 62.7237,5.3752 C62.6027,5.3452 62.5287,5.2242 62.5577,5.1042 C62.5877,4.9832 62.7087,4.9092 62.8287,4.9382 C62.9497,4.9672 63.0237,5.0882 62.9947,5.2092" id="Fill-65" fill="#3F3F40"></path>
                <path d="M55.9489,10.879 L53.4089,10.265 C53.0829,10.186 52.8819,9.858 52.9609,9.533 L53.5749,6.992 C53.6539,6.666 53.9819,6.466 54.3079,6.545 L56.8479,7.159 C57.1739,7.237 57.3739,7.565 57.2949,7.891 L56.6819,10.432 C56.6029,10.757 56.2749,10.958 55.9489,10.879" id="Fill-67" fill="#FBB648"></path>
                <path d="M60.9669,12.0916 L58.4269,11.4776 C58.1009,11.3986 57.8999,11.0706 57.9789,10.7456 L58.5929,8.2046 C58.6719,7.8786 58.9999,7.6786 59.3259,7.7576 L61.8659,8.3716 C62.1919,8.4496 62.3919,8.7776 62.3129,9.1036 L61.6999,11.6446 C61.6209,11.9696 61.2929,12.1706 60.9669,12.0916" id="Fill-69" fill="#F3783E"></path>
                <path d="M65.985,13.3041 L63.445,12.6901 C63.119,12.6111 62.918,12.2831 62.997,11.9581 L63.611,9.4171 C63.69,9.0911 64.018,8.8911 64.344,8.9701 L66.884,9.5841 C67.21,9.6621 67.41,9.9901 67.331,10.3161 L66.718,12.8571 C66.639,13.1821 66.311,13.3831 65.985,13.3041" id="Fill-71" fill="#F59184"></path>
                <path d="M71.0031,14.5167 L68.4631,13.9027 C68.1371,13.8237 67.9361,13.4957 68.0151,13.1707 L68.6291,10.6297 C68.7081,10.3037 69.0361,10.1037 69.3621,10.1827 L71.9021,10.7967 C72.2281,10.8747 72.4281,11.2027 72.3491,11.5287 L71.7361,14.0697 C71.6571,14.3947 71.3291,14.5957 71.0031,14.5167" id="Fill-73" fill="#EE403A"></path>
                <path d="M54.6935,16.074 L52.1535,15.46 C51.8275,15.381 51.6265,15.053 51.7055,14.728 L52.3195,12.187 C52.3985,11.861 52.7265,11.661 53.0525,11.74 L55.5925,12.354 C55.9185,12.432 56.1185,12.76 56.0395,13.086 L55.4265,15.627 C55.3475,15.952 55.0195,16.153 54.6935,16.074" id="Fill-75" fill="#5F7455"></path>
                <path d="M59.7117,17.2866 L57.1717,16.6726 C56.8457,16.5936 56.6447,16.2656 56.7237,15.9406 L57.3377,13.3996 C57.4167,13.0736 57.7447,12.8736 58.0707,12.9526 L60.6107,13.5666 C60.9367,13.6446 61.1367,13.9726 61.0577,14.2986 L60.4447,16.8396 C60.3657,17.1646 60.0377,17.3656 59.7117,17.2866" id="Fill-77" fill="#A2AF58"></path>
                <path d="M64.7298,18.4992 L62.1898,17.8852 C61.8638,17.8062 61.6628,17.4782 61.7418,17.1532 L62.3558,14.6122 C62.4348,14.2862 62.7628,14.0862 63.0888,14.1652 L65.6288,14.7792 C65.9548,14.8572 66.1548,15.1852 66.0758,15.5112 L65.4628,18.0522 C65.3838,18.3772 65.0558,18.5782 64.7298,18.4992" id="Fill-79" fill="#9080A8"></path>
                <path d="M69.7478,19.7117 L67.2078,19.0977 C66.8818,19.0187 66.6808,18.6907 66.7598,18.3657 L67.3738,15.8247 C67.4528,15.4987 67.7808,15.2987 68.1068,15.3777 L70.6468,15.9917 C70.9728,16.0697 71.1728,16.3977 71.0938,16.7237 L70.4808,19.2647 C70.4018,19.5897 70.0738,19.7907 69.7478,19.7117" id="Fill-81" fill="#5D76A0"></path>
                <path d="M53.4382,21.2691 L50.8982,20.6551 C50.5722,20.5761 50.3712,20.2481 50.4502,19.9231 L51.0642,17.3821 C51.1432,17.0561 51.4712,16.8561 51.7972,16.9351 L54.3372,17.5491 C54.6632,17.6271 54.8632,17.9551 54.7842,18.2811 L54.1712,20.8221 C54.0922,21.1471 53.7642,21.3481 53.4382,21.2691" id="Fill-83" fill="#3AA1C7"></path>
                <path d="M58.4563,22.4816 L55.9163,21.8676 C55.5903,21.7886 55.3893,21.4606 55.4683,21.1356 L56.0823,18.5946 C56.1613,18.2686 56.4893,18.0686 56.8153,18.1476 L59.3553,18.7616 C59.6813,18.8396 59.8813,19.1676 59.8023,19.4936 L59.1893,22.0346 C59.1103,22.3596 58.7823,22.5606 58.4563,22.4816" id="Fill-85" fill="#FBD2B3"></path>
                <path d="M63.4744,23.6942 L60.9344,23.0802 C60.6084,23.0012 60.4074,22.6732 60.4864,22.3482 L61.1004,19.8072 C61.1794,19.4812 61.5074,19.2812 61.8334,19.3602 L64.3734,19.9742 C64.6994,20.0522 64.8994,20.3802 64.8204,20.7062 L64.2074,23.2472 C64.1284,23.5722 63.8004,23.7732 63.4744,23.6942" id="Fill-87" fill="#7E5B59"></path>
                <path d="M68.4926,24.9067 L65.9526,24.2927 C65.6266,24.2137 65.4256,23.8857 65.5046,23.5607 L66.1186,21.0197 C66.1976,20.6937 66.5256,20.4937 66.8516,20.5727 L69.3916,21.1867 C69.7176,21.2647 69.9176,21.5927 69.8386,21.9187 L69.2256,24.4597 C69.1466,24.7847 68.8186,24.9857 68.4926,24.9067" id="Fill-89" fill="#B25F46"></path>
                <path d="M52.183,26.4641 L49.643,25.8501 C49.317,25.7711 49.116,25.4431 49.195,25.1181 L49.809,22.5771 C49.888,22.2511 50.216,22.0511 50.542,22.1301 L53.082,22.7441 C53.408,22.8221 53.608,23.1501 53.529,23.4761 L52.916,26.0171 C52.837,26.3421 52.509,26.5431 52.183,26.4641" id="Fill-91" fill="#DDCF21"></path>
                <path d="M57.201,27.6766 L54.661,27.0626 C54.335,26.9836 54.134,26.6556 54.213,26.3306 L54.827,23.7896 C54.906,23.4636 55.234,23.2636 55.56,23.3426 L58.1,23.9566 C58.426,24.0346 58.626,24.3626 58.547,24.6886 L57.934,27.2296 C57.855,27.5546 57.527,27.7556 57.201,27.6766" id="Fill-93" fill="#A43157"></path>
                <path d="M62.2191,28.8892 L59.6791,28.2752 C59.3531,28.1962 59.1521,27.8682 59.2311,27.5432 L59.8451,25.0022 C59.9241,24.6762 60.2521,24.4762 60.5781,24.5552 L63.1181,25.1692 C63.4441,25.2472 63.6441,25.5752 63.5651,25.9012 L62.9521,28.4422 C62.8731,28.7672 62.5451,28.9682 62.2191,28.8892" id="Fill-95" fill="#EA246E"></path>
                <path d="M67.2372,30.1017 L64.6972,29.4877 C64.3712,29.4087 64.1702,29.0807 64.2492,28.7557 L64.8632,26.2147 C64.9422,25.8887 65.2702,25.6887 65.5962,25.7677 L68.1362,26.3817 C68.4622,26.4597 68.6622,26.7877 68.5832,27.1137 L67.9702,29.6547 C67.8912,29.9797 67.5632,30.1807 67.2372,30.1017" id="Fill-97" fill="#78A7B2"></path>
                <path d="M50.9276,31.6591 L48.3876,31.0451 C48.0616,30.9661 47.8606,30.6381 47.9396,30.3131 L48.5536,27.7721 C48.6326,27.4461 48.9606,27.2461 49.2866,27.3251 L51.8266,27.9391 C52.1526,28.0171 52.3526,28.3451 52.2736,28.6711 L51.6606,31.2121 C51.5816,31.5371 51.2536,31.7381 50.9276,31.6591" id="Fill-99" fill="#624D7D"></path>
                <path d="M55.9458,32.8716 L53.4058,32.2576 C53.0798,32.1786 52.8788,31.8506 52.9578,31.5256 L53.5718,28.9846 C53.6508,28.6586 53.9788,28.4586 54.3048,28.5376 L56.8448,29.1516 C57.1708,29.2296 57.3708,29.5576 57.2918,29.8836 L56.6788,32.4246 C56.5998,32.7496 56.2718,32.9506 55.9458,32.8716" id="Fill-101" fill="#3E7778"></path>
                <path d="M60.9639,34.0842 L58.4239,33.4702 C58.0979,33.3912 57.8969,33.0632 57.9759,32.7382 L58.5899,30.1972 C58.6689,29.8712 58.9969,29.6712 59.3229,29.7502 L61.8629,30.3642 C62.1889,30.4422 62.3889,30.7702 62.3099,31.0962 L61.6969,33.6372 C61.6179,33.9622 61.2899,34.1632 60.9639,34.0842" id="Fill-103" fill="#FABB70"></path>
                <path d="M65.9819,35.2967 L63.4419,34.6827 C63.1159,34.6037 62.9149,34.2757 62.9939,33.9507 L63.6079,31.4097 C63.6869,31.0837 64.0149,30.8837 64.3409,30.9627 L66.8809,31.5767 C67.2069,31.6547 67.4069,31.9827 67.3279,32.3087 L66.7149,34.8497 C66.6359,35.1747 66.3079,35.3757 65.9819,35.2967" id="Fill-105" fill="#EE6D89"></path>
                <path d="M49.6723,36.8541 L47.1323,36.2401 C46.8063,36.1611 46.6053,35.8331 46.6843,35.5081 L47.2983,32.9671 C47.3773,32.6411 47.7053,32.4411 48.0313,32.5201 L50.5713,33.1341 C50.8973,33.2121 51.0973,33.5401 51.0183,33.8661 L50.4053,36.4071 C50.3263,36.7321 49.9983,36.9331 49.6723,36.8541" id="Fill-107" fill="#F9AC1E"></path>
                <path d="M54.6904,38.0666 L52.1504,37.4526 C51.8244,37.3736 51.6234,37.0456 51.7024,36.7206 L52.3164,34.1796 C52.3954,33.8536 52.7234,33.6536 53.0494,33.7326 L55.5894,34.3466 C55.9154,34.4246 56.1154,34.7526 56.0364,35.0786 L55.4234,37.6196 C55.3444,37.9446 55.0164,38.1456 54.6904,38.0666" id="Fill-109" fill="#F7BABA"></path>
                <g id="Group-113" transform="translate(55.651300, 12.001100)">
                    <mask id="mask-1no9n_0br--6" fill="white">
                        <use xlink:href="#path-1no9n_0br--5"></use>
                    </mask>
                    <g id="Clip-112"></g>
                    <path d="M25.361,9.328 C25.361,14.48 19.684,18.656 12.68,18.656 C5.677,18.656 1.42108547e-14,14.48 1.42108547e-14,9.328 C1.42108547e-14,4.176 5.677,0 12.68,0 C19.684,0 25.361,4.176 25.361,9.328" id="Fill-111" fill="#FFFFFF" mask="url(#mask-1no9n_0br--6)"></path>
                </g>
                <polygon id="Fill-114" fill="#FFFFFF" points="58.6288 24.2746 55.3888 30.7826 63.5968 27.1536"></polygon>
            </g>
        </g>
    </g>
</svg>