
<svg width="64px" height="62px" viewBox="0 0 64 62" version="1.1" xmlns="http://www.w3.org/2000/svg" xmlns:xlink="http://www.w3.org/1999/xlink">
    <defs>
        <polygon id="path-p-tzxb01vu-1" points="0 0 15 0 15 19 0 19"></polygon>
        <polygon id="path-p-tzxb01vu-3" points="0 0 10 0 10 11 0 11"></polygon>
    </defs>
    <g id="Page-1" stroke="none" stroke-width="1" fill="none" fill-rule="evenodd">
        <g id="Topics-Menu---rev9" transform="translate(-283.000000, -173.000000)">
            <g id="Group-65" transform="translate(283.000000, 173.000000)">
                <path d="M46.2104607,62 L20.7895393,62 C19.8009909,62 19,61.1893905 19,60.1889713 L19,9.8110287 C19,8.81148017 19.8009909,8 20.7895393,8 L46.2104607,8 C47.1990091,8 48,8.81148017 48,9.8110287 L48,60.1889713 C48,61.1893905 47.1981488,62 46.2104607,62" id="Fill-1" fill="#000000"></path>
                <path d="M45.3043101,61 L21.6956899,61 C20.7584611,61 20,60.2330125 20,59.2872073 L20,10.7127927 C20,9.76698751 20.7584611,9 21.6956899,9 L45.3043101,9 C46.2406711,9 47,9.76698751 47,10.7127927 L47,59.2872073 C47,60.2330125 46.2406711,61 45.3043101,61 Z" id="Stroke-3" stroke="#434345" stroke-width="0.154"></path>
                <path d="M34,11.5 C34,11.7762431 33.7762431,12 33.5,12 C33.2237569,12 33,11.7762431 33,11.5 C33,11.2237569 33.2237569,11 33.5,11 C33.7762431,11 34,11.2237569 34,11.5" id="Fill-5" fill="#3F3F40"></path>
                <path d="M32.8205,11.5 C32.8205,11.677 32.6775,11.82 32.5005,11.82 C32.3235,11.82 32.1795,11.677 32.1795,11.5 C32.1795,11.323 32.3235,11.18 32.5005,11.18 C32.6775,11.18 32.8205,11.323 32.8205,11.5" id="Fill-7" fill="#3F3F40"></path>
                <path d="M26.2069597,21 L22.7930403,21 C22.3553114,21 22,20.6446886 22,20.2069597 L22,16.7930403 C22,16.3553114 22.3553114,16 22.7930403,16 L26.2069597,16 C26.6446886,16 27,16.3553114 27,16.7930403 L27,20.2069597 C27,20.6446886 26.6446886,21 26.2069597,21" id="Fill-9" fill="#FBB648"></path>
                <path d="M32.2069597,21 L28.7930403,21 C28.3553114,21 28,20.6446886 28,20.2069597 L28,16.7930403 C28,16.3553114 28.3553114,16 28.7930403,16 L32.2069597,16 C32.6446886,16 33,16.3553114 33,16.7930403 L33,20.2069597 C33,20.6446886 32.6446886,21 32.2069597,21" id="Fill-11" fill="#F3783E"></path>
                <path d="M39.2069597,21 L35.7930403,21 C35.3553114,21 35,20.6446886 35,20.2069597 L35,16.7930403 C35,16.3553114 35.3553114,16 35.7930403,16 L39.2069597,16 C39.6446886,16 40,16.3553114 40,16.7930403 L40,20.2069597 C40,20.6446886 39.6446886,21 39.2069597,21" id="Fill-13" fill="#F59184"></path>
                <path d="M45.2069597,21 L41.7930403,21 C41.3553114,21 41,20.6446886 41,20.2069597 L41,16.7930403 C41,16.3553114 41.3553114,16 41.7930403,16 L45.2069597,16 C45.6446886,16 46,16.3553114 46,16.7930403 L46,20.2069597 C46,20.6446886 45.6446886,21 45.2069597,21" id="Fill-15" fill="#EE403A"></path>
                <path d="M26.2069597,27 L22.7930403,27 C22.3553114,27 22,26.6446886 22,26.2069597 L22,22.7930403 C22,22.3553114 22.3553114,22 22.7930403,22 L26.2069597,22 C26.6446886,22 27,22.3553114 27,22.7930403 L27,26.2069597 C27,26.6446886 26.6446886,27 26.2069597,27" id="Fill-17" fill="#5F7455"></path>
                <path d="M32.2069597,27 L28.7930403,27 C28.3553114,27 28,26.6446886 28,26.2069597 L28,22.7930403 C28,22.3553114 28.3553114,22 28.7930403,22 L32.2069597,22 C32.6446886,22 33,22.3553114 33,22.7930403 L33,26.2069597 C33,26.6446886 32.6446886,27 32.2069597,27" id="Fill-19" fill="#A2AF58"></path>
                <path d="M39.2069597,27 L35.7930403,27 C35.3553114,27 35,26.6446886 35,26.2069597 L35,22.7930403 C35,22.3553114 35.3553114,22 35.7930403,22 L39.2069597,22 C39.6446886,22 40,22.3553114 40,22.7930403 L40,26.2069597 C40,26.6446886 39.6446886,27 39.2069597,27" id="Fill-21" fill="#9080A8"></path>
                <path d="M45.2069597,27 L41.7930403,27 C41.3553114,27 41,26.6446886 41,26.2069597 L41,22.7930403 C41,22.3553114 41.3553114,22 41.7930403,22 L45.2069597,22 C45.6446886,22 46,22.3553114 46,22.7930403 L46,26.2069597 C46,26.6446886 45.6446886,27 45.2069597,27" id="Fill-23" fill="#5D76A0"></path>
                <path d="M26.2069597,34 L22.7930403,34 C22.3553114,34 22,33.6446886 22,33.2069597 L22,29.7930403 C22,29.3553114 22.3553114,29 22.7930403,29 L26.2069597,29 C26.6446886,29 27,29.3553114 27,29.7930403 L27,33.2069597 C27,33.6446886 26.6446886,34 26.2069597,34" id="Fill-25" fill="#3AA1C7"></path>
                <path d="M32.2069597,34 L28.7930403,34 C28.3553114,34 28,33.6446886 28,33.2069597 L28,29.7930403 C28,29.3553114 28.3553114,29 28.7930403,29 L32.2069597,29 C32.6446886,29 33,29.3553114 33,29.7930403 L33,33.2069597 C33,33.6446886 32.6446886,34 32.2069597,34" id="Fill-27" fill="#FBD2B3"></path>
                <path d="M39.2069597,34 L35.7930403,34 C35.3553114,34 35,33.6446886 35,33.2069597 L35,29.7930403 C35,29.3553114 35.3553114,29 35.7930403,29 L39.2069597,29 C39.6446886,29 40,29.3553114 40,29.7930403 L40,33.2069597 C40,33.6446886 39.6446886,34 39.2069597,34" id="Fill-29" fill="#7E5B59"></path>
                <path d="M45.2069597,34 L41.7930403,34 C41.3553114,34 41,33.6446886 41,33.2069597 L41,29.7930403 C41,29.3553114 41.3553114,29 41.7930403,29 L45.2069597,29 C45.6446886,29 46,29.3553114 46,29.7930403 L46,33.2069597 C46,33.6446886 45.6446886,34 45.2069597,34" id="Fill-31" fill="#B25F46"></path>
                <path d="M26.2069597,41 L22.7930403,41 C22.3553114,41 22,40.6446886 22,40.2069597 L22,36.7930403 C22,36.3553114 22.3553114,36 22.7930403,36 L26.2069597,36 C26.6446886,36 27,36.3553114 27,36.7930403 L27,40.2069597 C27,40.6446886 26.6446886,41 26.2069597,41" id="Fill-33" fill="#DDCF21"></path>
                <path d="M32.2069597,41 L28.7930403,41 C28.3553114,41 28,40.6446886 28,40.2069597 L28,36.7930403 C28,36.3553114 28.3553114,36 28.7930403,36 L32.2069597,36 C32.6446886,36 33,36.3553114 33,36.7930403 L33,40.2069597 C33,40.6446886 32.6446886,41 32.2069597,41" id="Fill-35" fill="#A43157"></path>
                <path d="M39.2069597,41 L35.7930403,41 C35.3553114,41 35,40.6446886 35,40.2069597 L35,36.7930403 C35,36.3553114 35.3553114,36 35.7930403,36 L39.2069597,36 C39.6446886,36 40,36.3553114 40,36.7930403 L40,40.2069597 C40,40.6446886 39.6446886,41 39.2069597,41" id="Fill-37" fill="#EA246E"></path>
                <path d="M45.2069597,41 L41.7930403,41 C41.3553114,41 41,40.6446886 41,40.2069597 L41,36.7930403 C41,36.3553114 41.3553114,36 41.7930403,36 L45.2069597,36 C45.6446886,36 46,36.3553114 46,36.7930403 L46,40.2069597 C46,40.6446886 45.6446886,41 45.2069597,41" id="Fill-39" fill="#78A7B2"></path>
                <path d="M26.2069597,47 L22.7930403,47 C22.3553114,47 22,46.6446886 22,46.2069597 L22,42.7930403 C22,42.3553114 22.3553114,42 22.7930403,42 L26.2069597,42 C26.6446886,42 27,42.3553114 27,42.7930403 L27,46.2069597 C27,46.6446886 26.6446886,47 26.2069597,47" id="Fill-41" fill="#624D7D"></path>
                <path d="M32.2069597,47 L28.7930403,47 C28.3553114,47 28,46.6446886 28,46.2069597 L28,42.7930403 C28,42.3553114 28.3553114,42 28.7930403,42 L32.2069597,42 C32.6446886,42 33,42.3553114 33,42.7930403 L33,46.2069597 C33,46.6446886 32.6446886,47 32.2069597,47" id="Fill-43" fill="#3E7778"></path>
                <path d="M39.2069597,47 L35.7930403,47 C35.3553114,47 35,46.6446886 35,46.2069597 L35,42.7930403 C35,42.3553114 35.3553114,42 35.7930403,42 L39.2069597,42 C39.6446886,42 40,42.3553114 40,42.7930403 L40,46.2069597 C40,46.6446886 39.6446886,47 39.2069597,47" id="Fill-45" fill="#FABB70"></path>
                <path d="M45.2069597,47 L41.7930403,47 C41.3553114,47 41,46.6446886 41,46.2069597 L41,42.7930403 C41,42.3553114 41.3553114,42 41.7930403,42 L45.2069597,42 C45.6446886,42 46,42.3553114 46,42.7930403 L46,46.2069597 C46,46.6446886 45.6446886,47 45.2069597,47" id="Fill-47" fill="#EE6D89"></path>
                <path d="M26.2069597,54 L22.7930403,54 C22.3553114,54 22,53.6446886 22,53.2069597 L22,49.7930403 C22,49.3553114 22.3553114,49 22.7930403,49 L26.2069597,49 C26.6446886,49 27,49.3553114 27,49.7930403 L27,53.2069597 C27,53.6446886 26.6446886,54 26.2069597,54" id="Fill-49" fill="#F9AC1E"></path>
                <path d="M32.2069597,54 L28.7930403,54 C28.3553114,54 28,53.6446886 28,53.2069597 L28,49.7930403 C28,49.3553114 28.3553114,49 28.7930403,49 L32.2069597,49 C32.6446886,49 33,49.3553114 33,49.7930403 L33,53.2069597 C33,53.6446886 32.6446886,54 32.2069597,54" id="Fill-51" fill="#F7BABA"></path>
                <path d="M41.9653841,49.4854068 C44.2594208,50.3145522 45.4875504,52.9260131 44.6446991,55.1836129 C43.8177174,57.39698 41.1798397,58.5617731 38.8849213,57.7317604 C36.6349668,56.9190939 35.4350499,54.3666098 36.2620316,52.1532427 C37.1048829,49.8965103 39.7154296,48.671873 41.9653841,49.4854068 M40.5882568,43.5192029 L41.2688857,41.6969912 C42.6310251,38.0508332 49.3191736,38.6458057 50.3568681,35.8678218 C50.859405,34.5217616 49.90194,32.7966882 48.0046429,32.1106485 C44.9162453,30.9944246 43.0559773,33.4254857 42.3101068,32.072487 L40.5917834,28.4948462 C40.3519763,28.0637947 40.5909017,27.5590221 41.013209,27.36648 C41.013209,27.36648 45.7044347,24.7272652 51.3963259,26.7845171 C56.0725637,28.4748981 59.1971087,33.2502897 57.5598965,37.6336586 C55.4192658,43.3630877 48.7364071,41.1445167 46.9854629,45.831443 C46.8073709,46.3093291 46.2810297,46.5131462 45.8393262,46.3535617 L41.1181246,44.6467018 C40.6773028,44.4879847 40.4101648,43.997089 40.5882568,43.5192029" id="Fill-53" fill="#FFFFFF"></path>
                <g id="Group-57" transform="translate(0.000000, 35.000000)">
                    <mask id="mask-p-tzxb01vu-2" fill="white">
                        <use xlink:href="#path-p-tzxb01vu-1"></use>
                    </mask>
                    <g id="Clip-56"></g>
                    <path d="M10.9078738,14.0312481 C12.1846193,13.2898548 13.8993078,13.7308485 14.6489322,14.9944481 C15.3844294,16.2327233 14.9235296,17.9041328 13.6467842,18.6463993 C12.3947613,19.3729473 10.7189226,18.9415594 9.98342535,17.7032842 C9.23380095,16.4405579 9.65585097,14.7586693 10.9078738,14.0312481 M7.53942024,12.361585 L6.93459961,11.3416235 C5.72319246,9.30170048 8.57865218,6.43567846 7.65596962,4.88128504 C7.20919701,4.12766621 6.0198636,3.904113 4.96385561,4.51713782 C3.2447523,5.51526798 3.68622722,7.31679248 2.7555981,7.13864852 L0.391941426,6.55094808 C0.0952702859,6.49505978 -0.0539482342,6.18942063 0.0175707015,5.91958491 C0.0175707015,5.91958491 0.565882541,2.72696563 3.73390651,0.88789117 C6.33684258,-0.623712765 9.81036719,-0.2237621 11.2663514,2.23008369 C13.1699913,5.43580179 9.54371634,7.6713339 11.1003569,10.2945911 C11.2592878,10.5618071 11.1533339,10.884038 10.9078738,11.0272518 L8.28021514,12.5528278 C8.03475509,12.6951684 7.69835121,12.628801 7.53942024,12.361585" id="Fill-55" fill="#FFFFFF" mask="url(#mask-p-tzxb01vu-2)"></path>
                </g>
                <path d="M6.50174102,21.5785813 C7.48743235,21.4743956 8.41492788,22.1770034 8.524045,23.1103696 C8.63225281,24.025654 7.88843777,24.8858319 6.90274644,24.9900177 C5.93615061,25.0916203 5.0295692,24.4053722 4.9222707,23.4900878 C4.81224427,22.5567216 5.53514519,21.6801839 6.50174102,21.5785813 M4.90226589,19.7299307 L4.81406289,18.9756605 C4.63674756,17.4679813 7.17462994,16.5277268 7.04005215,15.3782398 C6.97458188,14.8220086 6.30805813,14.3828787 5.49331696,14.4689826 C4.16572533,14.609332 3.93839799,15.7777618 3.41827305,15.4333463 L2.13523756,14.477593 C1.96883396,14.3682411 1.96246879,14.1503982 2.080679,14.0109099 C2.080679,14.0109099 3.2973349,12.2836658 5.74337703,12.0253541 C7.75295068,11.8135385 9.76707087,12.9466658 9.98075857,14.7591528 C10.2590072,17.129593 7.4237807,17.5007008 7.65110803,19.4397605 C7.67475007,19.6377995 7.5210768,19.7988138 7.33103114,19.8186177 L5.302362,20.0330164 C5.11322566,20.0528203 4.92590793,19.9271086 4.90226589,19.7299307" id="Fill-58" fill="#FFFFFF"></path>
                <g id="Group-62" transform="translate(37.000000, 0.000000)">
                    <mask id="mask-p-tzxb01vu-4" fill="white">
                        <use xlink:href="#path-p-tzxb01vu-3"></use>
                    </mask>
                    <g id="Clip-61"></g>
                    <path d="M2.63159522,8.05470399 C3.32158545,8.62612242 3.43241721,9.7051849 2.87325847,10.409254 C2.32409958,11.1005683 1.27744774,11.2000563 0.586624197,10.6286379 C-0.0900328834,10.069124 -0.198364682,9.01387064 0.350794204,8.3234067 C0.909952949,7.61848724 1.95410482,7.49433979 2.63159522,8.05470399 M2.86992518,5.76052702 L3.32241877,5.19165956 C4.22573931,4.05307433 6.45654103,5.06751211 7.14486461,4.20018056 C7.47902655,3.78011999 7.35486164,3.04969077 6.78403639,2.57776037 C5.85488289,1.80906653 4.92489607,2.45361292 4.82906409,1.88134416 L4.66489975,0.398377284 C4.63406685,0.215557399 4.77656483,0.0641995409 4.94489578,0.046342715 C4.94489578,0.046342715 6.87486844,-0.33375258 8.58734418,1.08288894 C9.99482424,2.24698393 10.4989838,4.32602867 9.41233249,5.69420166 C7.99235261,7.48243523 5.95738144,5.88977643 4.79489791,7.3523355 C4.67656625,7.50199271 4.47156916,7.51134629 4.33823771,7.40165436 L2.91825783,6.22650514 C2.78492638,6.11681321 2.75159352,5.9093339 2.86992518,5.76052702" id="Fill-60" fill="#FFFFFF" mask="url(#mask-p-tzxb01vu-4)"></path>
                </g>
                <path d="M59.0452822,58.5554996 C59.949608,58.7130769 60.5848711,59.6389548 60.4327175,60.575516 C60.2831427,61.4933816 59.3925708,62.134374 58.488245,61.9759064 C57.6019713,61.8218902 56.9804622,60.9164884 57.130037,59.9986228 C57.2821906,59.0620617 58.1590085,58.4005931 59.0452822,58.5554996 M58.1186061,56.3387341 L58.2423921,55.5820069 C58.488245,54.0703331 60.9957721,53.8228388 61.1831704,52.6708329 C61.2742907,52.1126353 60.7997775,51.5108147 60.0527631,51.3808356 C58.8355336,51.1680618 58.320618,52.2443949 57.9501195,51.7725532 L57.0655651,50.5074835 C56.9469368,50.3570283 56.9993739,50.1442544 57.1420717,50.0392029 C57.1420717,50.0392029 58.6859588,48.6797648 60.9287213,49.0705921 C62.771758,49.3928688 64.2580502,51.0229482 63.962339,52.840874 C63.5755077,55.2178876 60.9562293,54.8341824 60.6398872,56.7785261 C60.6072214,56.9770557 60.4275597,57.0936807 60.2539154,57.0634116 L58.3936862,56.7384641 C58.2200419,56.708195 58.0868,56.5363734 58.1186061,56.3387341" id="Fill-63" fill="#FFFFFF"></path>
            </g>
        </g>
    </g>
</svg>