
<svg width="48px" height="66px" viewBox="0 0 48 66" version="1.1" xmlns="http://www.w3.org/2000/svg" xmlns:xlink="http://www.w3.org/1999/xlink">
    <defs>
        <polyline id="path-l_rr5pq-t8-1" points="30.4786396 0 -3.68385906e-16 6.01139958 5.31563667 43.8200271 9.72376607 39.9283312 17.8307756 36.7345662 22.8145998 25.8928165 30.4421402 29.9909661 35.2094567 23.6594378"></polyline>
        <polygon id="path-l_rr5pq-t8-3" points="30.4786396 0 -3.68385906e-16 6.01139958 5.31563667 43.8200271 9.72376607 39.9283312 17.8307756 36.7345662 22.8145998 25.8928165 30.4421402 29.9909661 35.2094567 23.6594378"></polygon>
        <polyline id="path-l_rr5pq-t8-5" points="30.4786396 0 -3.68385906e-16 6.01139958 5.31563667 43.8200271 9.72376607 39.9283312 17.8307756 36.7345662 22.8145998 25.8928165 30.4421402 29.9909661 35.2094567 23.6594378"></polyline>
        <polyline id="path-l_rr5pq-t8-7" points="30.4786396 0 -3.68385906e-16 6.01139958 5.31563667 43.8200271 9.72376607 39.9283312 17.8307756 36.7345662 22.8145998 25.8928165 30.4421402 29.9909661 35.2094567 23.6594378"></polyline>
        <polyline id="path-l_rr5pq-t8-9" points="30.4786396 0 -3.68385906e-16 6.01139958 5.31563667 43.8200271 9.72376607 39.9283312 17.8307756 36.7345662 22.8145998 25.8928165 30.4421402 29.9909661 35.2094567 23.6594378"></polyline>
        <polyline id="path-l_rr5pq-t8-11" points="30.4786396 0 -3.68385906e-16 6.01139958 5.31563667 43.8200271 9.72376607 39.9283312 17.8307756 36.7345662 22.8145998 25.8928165 30.4421402 29.9909661 35.2094567 23.6594378"></polyline>
        <polyline id="path-l_rr5pq-t8-13" points="30.4786396 0 -3.68385906e-16 6.01139958 5.31563667 43.8200271 9.72376607 39.9283312 17.8307756 36.7345662 22.8145998 25.8928165 30.4421402 29.9909661 35.2094567 23.6594378"></polyline>
        <polyline id="path-l_rr5pq-t8-15" points="30.4786396 0 -3.68385906e-16 6.01139958 5.31563667 43.8200271 9.72376607 39.9283312 17.8307756 36.7345662 22.8145998 25.8928165 30.4421402 29.9909661 35.2094567 23.6594378"></polyline>
        <polyline id="path-l_rr5pq-t8-17" points="30.4786396 0 -3.68385906e-16 6.01139958 5.31563667 43.8200271 9.72376607 39.9283312 17.8307756 36.7345662 22.8145998 25.8928165 30.4421402 29.9909661 35.2094567 23.6594378"></polyline>
        <polyline id="path-l_rr5pq-t8-19" points="30.4786396 0 -3.68385906e-16 6.01139958 5.31563667 43.8200271 9.72376607 39.9283312 17.8307756 36.7345662 22.8145998 25.8928165 30.4421402 29.9909661 35.2094567 23.6594378"></polyline>
        <polyline id="path-l_rr5pq-t8-21" points="30.4786396 0 -3.68385906e-16 6.01139958 5.31563667 43.8200271 9.72376607 39.9283312 17.8307756 36.7345662 22.8145998 25.8928165 30.4421402 29.9909661 35.2094567 23.6594378"></polyline>
        <polyline id="path-l_rr5pq-t8-23" points="30.4786396 0 -3.68385906e-16 6.01139958 5.31563667 43.8200271 9.72376607 39.9283312 17.8307756 36.7345662 22.8145998 25.8928165 30.4421402 29.9909661 35.2094567 23.6594378"></polyline>
        <polyline id="path-l_rr5pq-t8-25" points="30.4786396 0 -3.68385906e-16 6.01139958 5.31563667 43.8200271 9.72376607 39.9283312 17.8307756 36.7345662 22.8145998 25.8928165 30.4421402 29.9909661 35.2094567 23.6594378"></polyline>
        <polyline id="path-l_rr5pq-t8-27" points="30.4786396 0 -3.68385906e-16 6.01139958 5.31563667 43.8200271 9.72376607 39.9283312 17.8307756 36.7345662 22.8145998 25.8928165 30.4421402 29.9909661 35.2094567 23.6594378"></polyline>
        <polyline id="path-l_rr5pq-t8-29" points="30.4786396 0 -3.68385906e-16 6.01139958 5.31563667 43.8200271 9.72376607 39.9283312 17.8307756 36.7345662 22.8145998 25.8928165 30.4421402 29.9909661 35.2094567 23.6594378"></polyline>
        <polyline id="path-l_rr5pq-t8-31" points="30.4786396 0 -3.68385906e-16 6.01139958 5.31563667 43.8200271 9.72376607 39.9283312 17.8307756 36.7345662 22.8145998 25.8928165 30.4421402 29.9909661 35.2094567 23.6594378"></polyline>
        <polyline id="path-l_rr5pq-t8-33" points="30.4786396 0 -3.68385906e-16 6.01139958 5.31563667 43.8200271 9.72376607 39.9283312 17.8307756 36.7345662 22.8145998 25.8928165 30.4421402 29.9909661 35.2094567 23.6594378"></polyline>
        <polyline id="path-l_rr5pq-t8-35" points="30.4786396 0 -3.68385906e-16 6.01139958 5.31563667 43.8200271 9.72376607 39.9283312 17.8307756 36.7345662 22.8145998 25.8928165 30.4421402 29.9909661 35.2094567 23.6594378"></polyline>
        <polyline id="path-l_rr5pq-t8-37" points="30.4786396 0 -3.68385906e-16 6.01139958 5.31563667 43.8200271 9.72376607 39.9283312 17.8307756 36.7345662 22.8145998 25.8928165 30.4421402 29.9909661 35.2094567 23.6594378"></polyline>
        <polyline id="path-l_rr5pq-t8-39" points="30.4786396 0 -3.68385906e-16 6.01139958 5.31563667 43.8200271 9.72376607 39.9283312 17.8307756 36.7345662 22.8145998 25.8928165 30.4421402 29.9909661 35.2094567 23.6594378"></polyline>
        <polyline id="path-l_rr5pq-t8-41" points="30.4786396 0 -3.68385906e-16 6.01139958 5.31563667 43.8200271 9.72376607 39.9283312 17.8307756 36.7345662 22.8145998 25.8928165 30.4421402 29.9909661 35.2094567 23.6594378"></polyline>
        <polyline id="path-l_rr5pq-t8-43" points="30.4786396 0 -3.68385906e-16 6.01139958 5.31563667 43.8200271 9.72376607 39.9283312 17.8307756 36.7345662 22.8145998 25.8928165 30.4421402 29.9909661 35.2094567 23.6594378"></polyline>
        <polyline id="path-l_rr5pq-t8-45" points="30.4786396 0 -3.68385906e-16 6.01139958 5.31563667 43.8200271 9.72376607 39.9283312 17.8307756 36.7345662 22.8145998 25.8928165 30.4421402 29.9909661 35.2094567 23.6594378"></polyline>
        <polyline id="path-l_rr5pq-t8-47" points="30.4786396 0 -3.68385906e-16 6.01139958 5.31563667 43.8200271 9.72376607 39.9283312 17.8307756 36.7345662 22.8145998 25.8928165 30.4421402 29.9909661 35.2094567 23.6594378"></polyline>
        <polyline id="path-l_rr5pq-t8-49" points="30.4786396 0 -3.68385906e-16 6.01139958 5.31563667 43.8200271 9.72376607 39.9283312 17.8307756 36.7345662 22.8145998 25.8928165 30.4421402 29.9909661 35.2094567 23.6594378"></polyline>
        <polyline id="path-l_rr5pq-t8-51" points="30.4786396 0 -3.68385906e-16 6.01139958 5.31563667 43.8200271 9.72376607 39.9283312 17.8307756 36.7345662 22.8145998 25.8928165 30.4421402 29.9909661 35.2094567 23.6594378"></polyline>
    </defs>
    <g id="Page-1" stroke="none" stroke-width="1" fill="none" fill-rule="evenodd">
        <g id="Topics-Menu---rev9" transform="translate(-290.000000, -474.000000)">
            <g id="Group-137" transform="translate(290.000000, 474.000000)">
                <g id="Group-57" transform="translate(0.000000, 9.938870)">
                    <path d="M35.7438407,56.0570534 L10.6181667,54.3502572 C9.64097885,54.2842254 8.90269598,53.4324991 8.96822895,52.4487091 L12.2855247,2.87137945 C12.3510577,1.88675365 13.1963501,1.14285131 14.1727084,1.20971894 L39.2992119,2.91567925 C40.2755703,2.98254688 41.0138532,3.83427326 40.9483202,4.81806321 L37.6310245,54.3953929 C37.5654915,55.3791828 36.7201991,56.1230852 35.7438407,56.0570534" id="Fill-1" fill="#000000"></path>
                    <path d="M34.8253837,54.8341281 L11.6905848,53.2627389 C10.7731232,53.2000505 10.079635,52.4001465 10.1410203,51.4757016 L13.3181253,3.99383614 C13.3795106,3.06855536 14.173372,2.36978867 15.0916632,2.43247707 L38.226462,4.00386628 C39.1439237,4.06571883 39.8374119,4.86645866 39.7760265,5.79090359 L36.5989216,53.272769 C36.5375363,54.1972139 35.7428453,54.8968165 34.8253837,54.8341281 Z" id="Stroke-3" stroke="#434345" stroke-width="0.158"></path>
                    <path d="M27.0794691,5.82634343 C27.0562422,6.16904001 26.7625881,6.42815206 26.4224803,6.40474839 C26.0823725,6.38134473 25.8252178,6.08545548 25.8484446,5.7427589 C25.870842,5.40006231 26.1653256,5.14095026 26.5054334,5.16435393 C26.8455413,5.18692175 27.102696,5.48364685 27.0794691,5.82634343" id="Fill-5" fill="#3F3F40"></path>
                    <path d="M25.3218582,5.70690113 C25.3119038,5.85818914 25.1816674,5.97269995 25.0315222,5.9626698 C24.8805475,5.95263966 24.7669017,5.82141194 24.7768561,5.67012394 C24.7868105,5.51800009 24.9170469,5.40348928 25.0680216,5.41435527 C25.2181667,5.42438541 25.3318125,5.55561313 25.3218582,5.70690113" id="Fill-7" fill="#3F3F40"></path>
                    <path d="M18.0437163,14.0110244 L14.8732476,13.7953764 C14.4667773,13.7677935 14.1598507,13.413395 14.1872252,13.0038308 L14.4004148,9.80922999 C14.4277893,9.39966578 14.7795106,9.08956717 15.1868105,9.11798591 L18.3564496,9.33279816 C18.7637495,9.36038105 19.0706761,9.71477947 19.0433015,10.1251795 L18.8292825,13.3189445 C18.8019079,13.7285087 18.4501866,14.0386073 18.0437163,14.0110244" id="Fill-9" fill="#FBB648"></path>
                    <path d="M24.3058482,14.4363861 L21.1353795,14.220738 C20.7289092,14.1931551 20.4219826,13.8387567 20.4493571,13.4291925 L20.6625467,10.2345917 C20.6899212,9.82502747 21.0416425,9.51492885 21.4489423,9.54251175 L24.6185815,9.75815984 C25.0258814,9.78574274 25.332808,10.1401412 25.3054334,10.5505412 L25.0914144,13.7443062 C25.0640398,14.1538704 24.7123185,14.463969 24.3058482,14.4363861" id="Fill-11" fill="#F3783E"></path>
                    <path d="M30.5679801,14.8617478 L27.3975114,14.6460997 C26.9910411,14.6185168 26.6841145,14.2641184 26.711489,13.8545542 L26.9246786,10.6599534 C26.9520531,10.2503892 27.3037744,9.94029054 27.7110742,9.96870928 L30.8807134,10.1835215 C31.2880133,10.2111044 31.5949399,10.5655028 31.5675653,10.9759029 L31.3535462,14.1696679 C31.3261717,14.5792321 30.9744504,14.8893307 30.5679801,14.8617478" id="Fill-13" fill="#F59184"></path>
                    <path d="M36.830112,15.2871095 L33.6596433,15.0714614 C33.253173,15.0438785 32.9462464,14.6894801 32.9736209,14.2799159 L33.1868105,11.0853151 C33.214185,10.6757508 33.5659063,10.3656522 33.9732061,10.3932351 L37.1428453,10.6088832 C37.5501452,10.6364661 37.8570718,10.9908645 37.8296972,11.4012646 L37.6156781,14.5950296 C37.5883036,15.0045938 37.2365823,15.3146924 36.830112,15.2871095" id="Fill-15" fill="#EE403A"></path>
                    <path d="M17.6067192,20.5433228 L14.4362505,20.3276747 C14.0297802,20.3000918 13.7228536,19.9456934 13.7502281,19.5361292 L13.9634177,16.3415284 C13.9907922,15.9319642 14.3425135,15.6218656 14.7498134,15.6502843 L17.9194525,15.8650965 C18.3267524,15.8926794 18.633679,16.2470779 18.6063044,16.6574779 L18.3922854,19.8512429 C18.3649108,20.2608071 18.0131895,20.5709057 17.6067192,20.5433228" id="Fill-17" fill="#5F7455"></path>
                    <path d="M23.8688511,20.9686845 L20.6983824,20.7530364 C20.2919121,20.7254535 19.9849855,20.3710551 20.01236,19.9614909 L20.2255496,16.7668901 C20.2529241,16.3573259 20.6046454,16.0472272 21.0119453,16.075646 L24.1815844,16.2904582 C24.5888843,16.3180411 24.8958109,16.6724395 24.8684363,17.0828396 L24.6544173,20.2766046 C24.6270427,20.6861688 24.2753214,20.9962674 23.8688511,20.9686845" id="Fill-19" fill="#A2AF58"></path>
                    <path d="M30.130983,21.3939626 L26.9605143,21.1783145 C26.554044,21.1507316 26.2471174,20.7963332 26.2744919,20.386769 L26.4876815,17.1921682 C26.515056,16.782604 26.8667773,16.4725053 27.2740771,16.5009241 L30.4437163,16.7157363 C30.8510162,16.7433192 31.1579428,17.0977176 31.1305682,17.5081177 L30.9165491,20.7018827 C30.8891746,21.1114469 30.5374533,21.4215455 30.130983,21.3939626" id="Fill-21" fill="#9080A8"></path>
                    <path d="M36.3931149,21.8193243 L33.2226462,21.6036762 C32.8161759,21.5760933 32.5092493,21.2216949 32.5366238,20.8121307 L32.7498134,17.6175299 C32.7771879,17.2079656 33.1289092,16.897867 33.536209,16.9254499 L36.7058482,17.141098 C37.1131481,17.1686809 37.4200747,17.5230793 37.3927001,17.9334794 L37.178681,21.1272444 C37.1513065,21.5368086 36.7995852,21.8469072 36.3931149,21.8193243" id="Fill-23" fill="#5D76A0"></path>
                    <path d="M17.1697221,27.0755376 L13.9992534,26.8598895 C13.5927831,26.8323067 13.2858565,26.4779082 13.313231,26.068344 L13.5264206,22.8737432 C13.5537951,22.464179 13.9055164,22.1540804 14.3128163,22.1824991 L17.4824554,22.3973114 C17.8897553,22.4248942 18.1966819,22.7792927 18.1693073,23.1896927 L17.9552883,26.3834577 C17.9279137,26.7930219 17.5761925,27.1031205 17.1697221,27.0755376" id="Fill-25" fill="#3AA1C7"></path>
                    <path d="M23.431854,27.5008993 L20.2613853,27.2852512 C19.854915,27.2576683 19.5479884,26.9032699 19.5753629,26.4937057 L19.7885525,23.2991049 C19.815927,22.8895407 20.1676483,22.5794421 20.5749482,22.6078608 L23.7445873,22.822673 C24.1518872,22.8502559 24.4588138,23.2046544 24.4314392,23.6150544 L24.2174202,26.8088194 C24.1900456,27.2183836 23.8383243,27.5284822 23.431854,27.5008993" id="Fill-27" fill="#FBD2B3"></path>
                    <path d="M29.6939859,27.926261 L26.5235172,27.7106129 C26.1170469,27.68303 25.8101203,27.3286316 25.8374948,26.9190674 L26.0506844,23.7244666 C26.0780589,23.3149024 26.4297802,23.0048037 26.83708,23.0332225 L30.0067192,23.2480347 C30.4140191,23.2756176 30.7209457,23.630016 30.6935711,24.0404161 L30.4795521,27.2341811 C30.4521775,27.6437453 30.1004562,27.9538439 29.6939859,27.926261" id="Fill-29" fill="#7E5B59"></path>
                    <path d="M35.9561178,28.3516227 L32.7856491,28.1359746 C32.3791788,28.1083917 32.0722522,27.7539933 32.0996267,27.3444291 L32.3128163,24.1498282 C32.3401908,23.740264 32.6919121,23.4301654 33.0992119,23.4585842 L36.2688511,23.6733964 C36.676151,23.7009793 36.9830776,24.0553777 36.955703,24.4657778 L36.7416839,27.6595428 C36.7143094,28.069107 36.3625881,28.3792056 35.9561178,28.3516227" id="Fill-31" fill="#B25F46"></path>
                    <path d="M16.7326421,33.6077524 L13.5621734,33.3921044 C13.155703,33.3645215 12.8487764,33.010123 12.876151,32.6005588 L13.0893405,29.405958 C13.1167151,28.9963938 13.4684363,28.6862952 13.8757362,28.7138781 L17.0453754,28.9295262 C17.4526752,28.9571091 17.7596018,29.3115075 17.7322273,29.7219075 L17.5182082,32.9156725 C17.4908337,33.3252367 17.1391124,33.6353353 16.7326421,33.6077524" id="Fill-33" fill="#DDCF21"></path>
                    <path d="M22.994774,34.0331141 L19.8243053,33.817466 C19.4178349,33.7898831 19.1109083,33.4354847 19.1382829,33.0259205 L19.3514724,29.8313197 C19.378847,29.4217555 19.7305682,29.1116569 20.1378681,29.1400756 L23.3075073,29.3548878 C23.7148071,29.3824707 24.0217337,29.7368692 23.9943592,30.1472692 L23.7803401,33.3410342 C23.7529656,33.7505984 23.4012443,34.060697 22.994774,34.0331141" id="Fill-35" fill="#A43157"></path>
                    <path d="M29.2569058,34.4584758 L26.0864372,34.2428277 C25.6799668,34.2152448 25.3730402,33.8608464 25.4004148,33.4512822 L25.6136043,30.2566814 C25.6409788,29.8471172 25.9927001,29.5370185 26.4,29.5654373 L29.5696392,29.7802495 C29.976939,29.8078324 30.2838656,30.1622308 30.2564911,30.5726309 L30.042472,33.7663959 C30.0150975,34.1759601 29.6633762,34.4860587 29.2569058,34.4584758" id="Fill-37" fill="#EA246E"></path>
                    <path d="M35.5190377,34.8838375 L32.3485691,34.6681894 C31.9420987,34.6406065 31.6351721,34.2862081 31.6625467,33.8766439 L31.8757362,30.6820431 C31.9031107,30.2724788 32.254832,29.9623802 32.6621319,29.990799 L35.831771,30.2056112 C36.2390709,30.2331941 36.5459975,30.5875925 36.518623,30.9979926 L36.3046039,34.1917576 C36.2772294,34.6013218 35.9255081,34.9114204 35.5190377,34.8838375" id="Fill-39" fill="#78A7B2"></path>
                    <path d="M16.295645,40.1400508 L13.1251763,39.9244027 C12.7187059,39.8968199 12.4117793,39.5424214 12.4391539,39.1328572 L12.6523434,35.9382564 C12.679718,35.5286922 13.0314392,35.2185936 13.4387391,35.2461765 L16.6083783,35.4618246 C17.0156781,35.4894074 17.3226047,35.8438059 17.2952302,36.2542059 L17.0812111,39.4479709 C17.0538366,39.8575351 16.7021153,40.1676337 16.295645,40.1400508" id="Fill-41" fill="#624D7D"></path>
                    <path d="M22.5577769,40.5653289 L19.3873082,40.3496808 C18.9808378,40.322098 18.6739112,39.9676995 18.7012858,39.5581353 L18.9144753,36.3635345 C18.9418499,35.9539703 19.2935711,35.6438717 19.700871,35.6722904 L22.8705102,35.8871027 C23.27781,35.9146855 23.5847366,36.269084 23.5573621,36.679484 L23.343343,39.873249 C23.3159685,40.2828132 22.9642472,40.5929118 22.5577769,40.5653289" id="Fill-43" fill="#3E7778"></path>
                    <path d="M28.8199088,40.9906906 L25.6494401,40.7750425 C25.2429697,40.7474596 24.9360431,40.3930612 24.9634177,39.983497 L25.1766072,36.7888962 C25.2039818,36.379332 25.555703,36.0692334 25.9630029,36.0968162 L29.1326421,36.3124643 C29.5399419,36.3400472 29.8468685,36.6944457 29.819494,37.1048457 L29.6054749,40.2986107 C29.5781004,40.7081749 29.2263791,41.0182735 28.8199088,40.9906906" id="Fill-45" fill="#FABB70"></path>
                    <path d="M35.0820406,41.4160523 L31.911572,41.2004042 C31.5051016,41.1728213 31.198175,40.8184229 31.2255496,40.4088587 L31.4387391,37.2142579 C31.4661136,36.8046937 31.8178349,36.494595 32.2251348,36.5230138 L35.394774,36.737826 C35.8020738,36.7654089 36.1090004,37.1198073 36.0816259,37.5302074 L35.8676068,40.7239724 C35.8402323,41.1335366 35.488511,41.4436352 35.0820406,41.4160523" id="Fill-47" fill="#EE6D89"></path>
                    <path d="M15.8586479,46.6722656 L12.6881792,46.4566176 C12.2817088,46.4290347 11.9747822,46.0746362 12.0021568,45.665072 L12.2153463,42.4704712 C12.2427209,42.060907 12.5944421,41.7508084 13.001742,41.7792271 L16.1713812,41.9940394 C16.578681,42.0216223 16.8856076,42.3760207 16.8582331,42.7864207 L16.644214,45.9801857 C16.6168395,46.3897499 16.2651182,46.6998485 15.8586479,46.6722656" id="Fill-49" fill="#F9AC1E"></path>
                    <path d="M22.1207798,47.0976273 L18.9503111,46.8819792 C18.5438407,46.8543963 18.2369141,46.4999979 18.2642887,46.0904337 L18.4774782,42.8958329 C18.5048528,42.4862687 18.856574,42.1761701 19.2638739,42.2045888 L22.4335131,42.419401 C22.8408129,42.4469839 23.1477395,42.8013824 23.120365,43.2117824 L22.9063459,46.4055474 C22.8789714,46.8151116 22.5272501,47.1252102 22.1207798,47.0976273" id="Fill-51" fill="#F7BABA"></path>
                    <polygon id="Fill-53" fill="#FFD746" points="0 45.5411162 12.1236002 28.3837192 21.7121526 26.6376383 29.0999585 14.307248 35.1762754 19.8756496 48 14.458536 35.4823725 27.7785671 29.1505599 20.8051096 23.1016176 32.1700985 13.1588552 31.8867469"></polygon>
                    <polygon id="Fill-55" fill="#FFD746" points="11.4510162 0 8.28054749 38.0518585 13.4385732 35.2467615 22.0474492 33.9520371 29.300871 24.5002982 35.831771 30.2057784 41.8782248 25.1029427 42.4929075 0.975431495"></polygon>
                </g>
                <g id="Group-136" transform="translate(1.278308, 0.000000)">
                    <g id="Group-60">
                        <mask id="mask-l_rr5pq-t8-2" fill="white">
                            <use xlink:href="#path-l_rr5pq-t8-1"></use>
                        </mask>
                        <g id="Clip-59"></g>
                        <path d="M36.0675238,55.2131004 L11.1948569,59.1850373 C10.2284529,59.3396687 9.32011613,58.6751717 9.16665284,57.700576 L1.44786396,8.62308189 C1.29440066,7.64932208 1.95387806,6.73407145 2.92111157,6.58027591 L27.7937785,2.60833892 C28.7601825,2.45370754 29.6685193,3.11820457 29.8219826,4.09196438 L37.5407715,53.1694585 C37.6942348,54.1440542 37.0339278,55.058469 36.0675238,55.2131004" id="Fill-58" fill="#000000" mask="url(#mask-l_rr5pq-t8-2)"></path>
                    </g>
                    <g id="Group-63">
                        <mask id="mask-l_rr5pq-t8-4" fill="white">
                            <use xlink:href="#path-l_rr5pq-t8-3"></use>
                        </mask>
                        <g id="Clip-62"></g>
                        <path d="M34.9020324,54.2268865 L12.0003318,57.8837098 C11.091995,58.0291468 10.2392368,57.4047704 10.0948984,56.4895198 L2.7021153,9.48575785 C2.55860639,8.57050722 3.17826628,7.71125822 4.08660307,7.56582114 L26.9874741,3.90899784 C27.8966404,3.76356075 28.7493986,4.38877305 28.893737,5.30402368 L36.2865201,52.3069497 C36.430029,53.2222004 35.8103691,54.0814494 34.9020324,54.2268865 Z" id="Stroke-61" stroke="#434345" stroke-width="0.158" mask="url(#mask-l_rr5pq-t8-4)"></path>
                    </g>
                    <g id="Group-66">
                        <mask id="mask-l_rr5pq-t8-6" fill="white">
                            <use xlink:href="#path-l_rr5pq-t8-5"></use>
                        </mask>
                        <g id="Clip-65"></g>
                        <path d="M16.5235172,8.18610195 C16.5766072,8.52545516 16.3476566,8.84391222 16.0108669,8.89740633 C15.6740771,8.95090043 15.3580257,8.72020712 15.3049357,8.38085391 C15.2510162,8.04150071 15.4807964,7.72304364 15.8175861,7.66954954 C16.1543758,7.6152196 16.4704272,7.84674875 16.5235172,8.18610195" id="Fill-64" fill="#3F3F40" mask="url(#mask-l_rr5pq-t8-6)"></path>
                    </g>
                    <g id="Group-69">
                        <mask id="mask-l_rr5pq-t8-8" fill="white">
                            <use xlink:href="#path-l_rr5pq-t8-7"></use>
                        </mask>
                        <g id="Clip-68"></g>
                        <path d="M14.7836582,8.46393694 C14.8068851,8.6143891 14.7056823,8.75481111 14.5563667,8.77905063 C14.4078805,8.8024543 14.2676898,8.70048117 14.2444629,8.55002901 C14.2204065,8.40041269 14.3224388,8.25915483 14.4709249,8.23491532 C14.6202406,8.21151165 14.7604314,8.31348478 14.7836582,8.46393694" id="Fill-67" fill="#3F3F40" mask="url(#mask-l_rr5pq-t8-8)"></path>
                    </g>
                    <g id="Group-72">
                        <mask id="mask-l_rr5pq-t8-10" fill="white">
                            <use xlink:href="#path-l_rr5pq-t8-9"></use>
                        </mask>
                        <g id="Clip-71"></g>
                        <path d="M9.52268768,18.1921735 L6.38457072,18.6936807 C5.98224803,18.757205 5.60398175,18.4805402 5.54010784,18.0751552 L5.04238905,14.9131523 C4.97934467,14.5077673 5.25391954,14.1266219 5.65624222,14.0622618 L8.79435919,13.5615904 C9.19668187,13.4972303 9.57494815,13.7738951 9.63882207,14.1792801 L10.1357113,17.341283 C10.1995852,17.746668 9.92501037,18.1278134 9.52268768,18.1921735" id="Fill-70" fill="#FBB648" mask="url(#mask-l_rr5pq-t8-10)"></path>
                    </g>
                    <g id="Group-75">
                        <mask id="mask-l_rr5pq-t8-12" fill="white">
                            <use xlink:href="#path-l_rr5pq-t8-11"></use>
                        </mask>
                        <g id="Clip-74"></g>
                        <path d="M15.7216922,17.2022819 L12.5835753,17.7037891 C12.1812526,17.7673133 11.8029863,17.4906485 11.7391124,17.0852636 L11.2413936,13.9232607 C11.1783492,13.5178757 11.4529241,13.1367302 11.8552468,13.0723701 L14.9933637,12.5716988 C15.3956864,12.5073387 15.7739527,12.7840035 15.8378266,13.1893885 L16.3347159,16.3513914 C16.3985898,16.7567763 16.1240149,17.1379218 15.7216922,17.2022819" id="Fill-73" fill="#F3783E" mask="url(#mask-l_rr5pq-t8-12)"></path>
                    </g>
                    <g id="Group-78">
                        <mask id="mask-l_rr5pq-t8-14" fill="white">
                            <use xlink:href="#path-l_rr5pq-t8-13"></use>
                        </mask>
                        <g id="Clip-77"></g>
                        <path d="M21.9206968,16.2123903 L18.7825798,16.7138975 C18.3802572,16.7774217 18.0019909,16.5007569 17.938117,16.0953719 L17.4403982,12.9333691 C17.3773538,12.5279841 17.6519287,12.1468386 18.0542513,12.0824785 L21.1923683,11.5818072 C21.594691,11.5174471 21.9729573,11.7941119 22.0368312,12.1994969 L22.5337204,15.3614997 C22.5975944,15.7668847 22.3230195,16.1480302 21.9206968,16.2123903" id="Fill-76" fill="#F59184" mask="url(#mask-l_rr5pq-t8-14)"></path>
                    </g>
                    <g id="Group-81">
                        <mask id="mask-l_rr5pq-t8-16" fill="white">
                            <use xlink:href="#path-l_rr5pq-t8-15"></use>
                        </mask>
                        <g id="Clip-80"></g>
                        <path d="M28.1196184,15.2224987 L24.9815015,15.7240059 C24.5791788,15.7875301 24.2009125,15.5108653 24.1370386,15.1054803 L23.6393198,11.9434774 C23.5762754,11.5380925 23.8508503,11.156947 24.253173,11.0925869 L27.3912899,10.5919156 C27.7936126,10.5275555 28.1718789,10.8042203 28.2357528,11.2096053 L28.7326421,14.3716081 C28.796516,14.7769931 28.5219411,15.1581386 28.1196184,15.2224987" id="Fill-79" fill="#EE403A" mask="url(#mask-l_rr5pq-t8-16)"></path>
                    </g>
                    <g id="Group-84">
                        <mask id="mask-l_rr5pq-t8-18" fill="white">
                            <use xlink:href="#path-l_rr5pq-t8-17"></use>
                        </mask>
                        <g id="Clip-83"></g>
                        <path d="M10.539776,24.6585237 L7.40165906,25.1600309 C6.99933637,25.2235552 6.6210701,24.9468904 6.55719618,24.5415054 L6.0594774,21.3795025 C5.99643302,20.9741175 6.27100788,20.592972 6.67333057,20.528612 L9.81144753,20.0279406 C10.2137702,19.9635805 10.5920365,20.2402453 10.6559104,20.6456303 L11.1527997,23.8076332 C11.2166736,24.2130182 10.9420987,24.5941636 10.539776,24.6585237" id="Fill-82" fill="#5F7455" mask="url(#mask-l_rr5pq-t8-18)"></path>
                    </g>
                    <g id="Group-87">
                        <mask id="mask-l_rr5pq-t8-20" fill="white">
                            <use xlink:href="#path-l_rr5pq-t8-19"></use>
                        </mask>
                        <g id="Clip-86"></g>
                        <path d="M16.7387806,23.6686321 L13.6006636,24.1701393 C13.1983409,24.2336635 12.8200747,23.9569987 12.7562007,23.5516137 L12.258482,20.3896109 C12.1954376,19.9842259 12.4700124,19.6030804 12.8723351,19.5387203 L16.0104521,19.038049 C16.4127748,18.9736889 16.7910411,19.2503537 16.854915,19.6557387 L17.3518042,22.8177416 C17.4156781,23.2231265 17.1411033,23.604272 16.7387806,23.6686321" id="Fill-85" fill="#A2AF58" mask="url(#mask-l_rr5pq-t8-20)"></path>
                    </g>
                    <g id="Group-90">
                        <mask id="mask-l_rr5pq-t8-22" fill="white">
                            <use xlink:href="#path-l_rr5pq-t8-21"></use>
                        </mask>
                        <g id="Clip-89"></g>
                        <path d="M22.9377022,22.6787405 L19.7995852,23.1802477 C19.3972625,23.2437719 19.0189963,22.9671071 18.9551224,22.5617221 L18.4574036,19.3997193 C18.3943592,18.9943343 18.6689341,18.6131888 19.0712567,18.5488287 L22.2093737,18.0481574 C22.6116964,17.9837973 22.9899627,18.2604621 23.0538366,18.6658471 L23.5507258,21.8278499 C23.6145998,22.2332349 23.3400249,22.6143804 22.9377022,22.6787405" id="Fill-88" fill="#9080A8" mask="url(#mask-l_rr5pq-t8-22)"></path>
                    </g>
                    <g id="Group-93">
                        <mask id="mask-l_rr5pq-t8-24" fill="white">
                            <use xlink:href="#path-l_rr5pq-t8-23"></use>
                        </mask>
                        <g id="Clip-92"></g>
                        <path d="M29.1367068,21.6888489 L25.9985898,22.1903561 C25.5962671,22.2538803 25.2180008,21.9772155 25.1541269,21.5718305 L24.6564081,18.4098276 C24.5933637,18.0044427 24.8679386,17.6232972 25.2702613,17.5589371 L28.4083783,17.0582657 C28.810701,16.9939057 29.1889672,17.2705705 29.2528411,17.6759554 L29.7497304,20.8379583 C29.8136043,21.2433433 29.5390294,21.6244888 29.1367068,21.6888489" id="Fill-91" fill="#5D76A0" mask="url(#mask-l_rr5pq-t8-24)"></path>
                    </g>
                    <g id="Group-96">
                        <mask id="mask-l_rr5pq-t8-26" fill="white">
                            <use xlink:href="#path-l_rr5pq-t8-25"></use>
                        </mask>
                        <g id="Clip-95"></g>
                        <path d="M11.5568644,31.1248739 L8.41874741,31.6263811 C8.01642472,31.6899053 7.63815844,31.4132405 7.57428453,31.0078556 L7.07656574,27.8458527 C7.01352136,27.4404677 7.28809623,27.0593222 7.69041891,26.9949622 L10.8285359,26.4942908 C11.2308586,26.4299307 11.6091248,26.7065955 11.6729988,27.1119805 L12.169888,30.2739834 C12.2337619,30.6793684 11.9591871,31.0605138 11.5568644,31.1248739" id="Fill-94" fill="#3AA1C7" mask="url(#mask-l_rr5pq-t8-26)"></path>
                    </g>
                    <g id="Group-99">
                        <mask id="mask-l_rr5pq-t8-28" fill="white">
                            <use xlink:href="#path-l_rr5pq-t8-27"></use>
                        </mask>
                        <g id="Clip-98"></g>
                        <path d="M17.755786,30.1349823 L14.617669,30.6364895 C14.2153463,30.7000137 13.83708,30.4233489 13.7732061,30.0179639 L13.2754873,26.8559611 C13.212443,26.4505761 13.4870178,26.0694306 13.8893405,26.0050705 L17.0274575,25.5043992 C17.4297802,25.4400391 17.8080465,25.7167039 17.8719204,26.1220889 L18.3688096,29.2840917 C18.4326835,29.6894767 18.1581087,30.0706222 17.755786,30.1349823" id="Fill-97" fill="#FBD2B3" mask="url(#mask-l_rr5pq-t8-28)"></path>
                    </g>
                    <g id="Group-102">
                        <mask id="mask-l_rr5pq-t8-30" fill="white">
                            <use xlink:href="#path-l_rr5pq-t8-29"></use>
                        </mask>
                        <g id="Clip-101"></g>
                        <path d="M23.9547905,29.1450907 L20.8166736,29.6465979 C20.4143509,29.7101221 20.0360846,29.4334573 19.9722107,29.0280723 L19.4744919,25.8660695 C19.4114475,25.4606845 19.6860224,25.079539 20.0883451,25.0151789 L23.226462,24.5145076 C23.6287847,24.4501475 24.007051,24.7268123 24.0709249,25.1321973 L24.5678142,28.2942001 C24.6316881,28.6995851 24.3571132,29.0807306 23.9547905,29.1450907" id="Fill-100" fill="#7E5B59" mask="url(#mask-l_rr5pq-t8-30)"></path>
                    </g>
                    <g id="Group-105">
                        <mask id="mask-l_rr5pq-t8-32" fill="white">
                            <use xlink:href="#path-l_rr5pq-t8-31"></use>
                        </mask>
                        <g id="Clip-104"></g>
                        <path d="M30.1537951,28.1551991 L27.0156781,28.6567062 C26.6133555,28.7202305 26.2350892,28.4435657 26.1712153,28.0381807 L25.6734965,24.8761778 C25.6104521,24.4707929 25.885027,24.0896474 26.2873496,24.0252873 L29.4254666,23.5246159 C29.8277893,23.4602559 30.2060556,23.7369207 30.2699295,24.1423056 L30.7668187,27.3043085 C30.8306927,27.7096935 30.5561178,28.090839 30.1537951,28.1551991" id="Fill-103" fill="#B25F46" mask="url(#mask-l_rr5pq-t8-32)"></path>
                    </g>
                    <g id="Group-108">
                        <mask id="mask-l_rr5pq-t8-34" fill="white">
                            <use xlink:href="#path-l_rr5pq-t8-33"></use>
                        </mask>
                        <g id="Clip-107"></g>
                        <path d="M12.5738698,37.5912241 L9.4357528,38.0927313 C9.03343011,38.1562555 8.65516383,37.8795907 8.59128992,37.4742058 L8.09357113,34.3122029 C8.03052675,33.9068179 8.30510162,33.5256724 8.70742431,33.4613123 L11.8455413,32.960641 C12.247864,32.8962809 12.6261302,33.1729457 12.6900041,33.5783307 L13.1868934,36.7403336 C13.2507673,37.1457185 12.9761925,37.526864 12.5738698,37.5912241" id="Fill-106" fill="#DDCF21" mask="url(#mask-l_rr5pq-t8-34)"></path>
                    </g>
                    <g id="Group-111">
                        <mask id="mask-l_rr5pq-t8-36" fill="white">
                            <use xlink:href="#path-l_rr5pq-t8-35"></use>
                        </mask>
                        <g id="Clip-110"></g>
                        <path d="M18.7728743,36.6013325 L15.6347574,37.1028397 C15.2324347,37.1663639 14.8541684,36.8896991 14.7902945,36.4843141 L14.2925757,33.3223113 C14.2295313,32.9169263 14.5041062,32.5357808 14.9064289,32.4714207 L18.0445458,31.9707494 C18.4468685,31.9063893 18.8251348,32.1830541 18.8890087,32.5884391 L19.385898,35.7504419 C19.4497719,36.1558269 19.175197,36.5369724 18.7728743,36.6013325" id="Fill-109" fill="#A43157" mask="url(#mask-l_rr5pq-t8-36)"></path>
                    </g>
                    <g id="Group-114">
                        <mask id="mask-l_rr5pq-t8-38" fill="white">
                            <use xlink:href="#path-l_rr5pq-t8-37"></use>
                        </mask>
                        <g id="Clip-113"></g>
                        <path d="M24.9717959,35.6114409 L21.833679,36.1129481 C21.4313563,36.1764723 21.05309,35.8998075 20.9892161,35.4944225 L20.4914973,32.3324197 C20.4284529,31.9270347 20.7030278,31.5458892 21.1053505,31.4815291 L24.2434674,30.9808578 C24.6457901,30.9164977 25.0240564,31.1931625 25.0879303,31.5985475 L25.5848196,34.7605503 C25.6486935,35.1659353 25.3741186,35.5470808 24.9717959,35.6114409" id="Fill-112" fill="#EA246E" mask="url(#mask-l_rr5pq-t8-38)"></path>
                    </g>
                    <g id="Group-117">
                        <mask id="mask-l_rr5pq-t8-40" fill="white">
                            <use xlink:href="#path-l_rr5pq-t8-39"></use>
                        </mask>
                        <g id="Clip-116"></g>
                        <path d="M31.1708005,34.6215492 L28.0326835,35.1230564 C27.6303608,35.1865807 27.2520946,34.9099159 27.1882207,34.5045309 L26.6905019,31.342528 C26.6274575,30.937143 26.9020324,30.5559976 27.304355,30.4916375 L30.442472,29.9909661 C30.8447947,29.926606 31.223061,30.2032709 31.2869349,30.6086558 L31.7838241,33.7706587 C31.8476981,34.1760437 31.5731232,34.5571892 31.1708005,34.6215492" id="Fill-115" fill="#78A7B2" mask="url(#mask-l_rr5pq-t8-40)"></path>
                    </g>
                    <g id="Group-120">
                        <mask id="mask-l_rr5pq-t8-42" fill="white">
                            <use xlink:href="#path-l_rr5pq-t8-41"></use>
                        </mask>
                        <g id="Clip-119"></g>
                        <path d="M13.5909581,44.0576579 L10.4528411,44.5591651 C10.0505185,44.6226893 9.67225218,44.3460245 9.60837827,43.9406395 L9.11065948,40.7786367 C9.0476151,40.3732517 9.32218996,39.9921062 9.72451265,39.9277461 L12.8626296,39.4270748 C13.2649523,39.3627147 13.6432186,39.6393795 13.7070925,40.0447645 L14.2039818,43.2067673 C14.2678557,43.6121523 13.9932808,43.9932978 13.5909581,44.0576579" id="Fill-118" fill="#624D7D" mask="url(#mask-l_rr5pq-t8-42)"></path>
                    </g>
                    <g id="Group-123">
                        <mask id="mask-l_rr5pq-t8-44" fill="white">
                            <use xlink:href="#path-l_rr5pq-t8-43"></use>
                        </mask>
                        <g id="Clip-122"></g>
                        <path d="M19.7898797,43.0676827 L16.6517628,43.5691899 C16.2494401,43.6327141 15.8711738,43.3560493 15.8072999,42.9506643 L15.3095811,39.7886615 C15.2465367,39.3832765 15.5211116,39.002131 15.9234343,38.9377709 L19.0615512,38.4370996 C19.4638739,38.3727395 19.8421402,38.6494043 19.9060141,39.0547893 L20.4029034,42.2167921 C20.4667773,42.6221771 20.1922024,43.0033226 19.7898797,43.0676827" id="Fill-121" fill="#3E7778" mask="url(#mask-l_rr5pq-t8-44)"></path>
                    </g>
                    <g id="Group-126">
                        <mask id="mask-l_rr5pq-t8-46" fill="white">
                            <use xlink:href="#path-l_rr5pq-t8-45"></use>
                        </mask>
                        <g id="Clip-125"></g>
                        <path d="M25.9888843,42.0778746 L22.8507673,42.5793818 C22.4484446,42.6429061 22.0701783,42.3662413 22.0063044,41.9608563 L21.5085856,38.7988534 C21.4455413,38.3934684 21.7201161,38.012323 22.1224388,37.9479629 L25.2605558,37.4472915 C25.6628785,37.3829314 26.0411448,37.6595963 26.1050187,38.0649812 L26.6019079,41.2269841 C26.6657818,41.6323691 26.391207,42.0135146 25.9888843,42.0778746" id="Fill-124" fill="#FABB70" mask="url(#mask-l_rr5pq-t8-46)"></path>
                    </g>
                    <g id="Group-129">
                        <mask id="mask-l_rr5pq-t8-48" fill="white">
                            <use xlink:href="#path-l_rr5pq-t8-47"></use>
                        </mask>
                        <g id="Clip-128"></g>
                        <path d="M32.1878888,41.0878994 L29.0497719,41.5894066 C28.6474492,41.6529309 28.2691829,41.3762661 28.205309,40.9708811 L27.7075902,37.8088782 C27.6445458,37.4034932 27.9191207,37.0223478 28.3214434,36.9579877 L31.4595603,36.4573163 C31.861883,36.3929562 32.2401493,36.669621 32.3040232,37.075006 L32.8009125,40.2370089 C32.8647864,40.6423939 32.5902115,41.0235394 32.1878888,41.0878994" id="Fill-127" fill="#EE6D89" mask="url(#mask-l_rr5pq-t8-48)"></path>
                    </g>
                    <g id="Group-132">
                        <mask id="mask-l_rr5pq-t8-50" fill="white">
                            <use xlink:href="#path-l_rr5pq-t8-49"></use>
                        </mask>
                        <g id="Clip-131"></g>
                        <path d="M14.6079635,50.5240081 L11.4698465,51.0255153 C11.0675238,51.0890395 10.6892576,50.8123747 10.6253837,50.4069897 L10.1276649,47.2449869 C10.0646205,46.8396019 10.3391954,46.4584564 10.741518,46.3940963 L13.879635,45.893425 C14.2819577,45.8290649 14.660224,46.1057297 14.7240979,46.5111147 L15.2209871,49.6731175 C15.2848611,50.0785025 15.0102862,50.459648 14.6079635,50.5240081" id="Fill-130" fill="#F9AC1E" mask="url(#mask-l_rr5pq-t8-50)"></path>
                    </g>
                    <g id="Group-135">
                        <mask id="mask-l_rr5pq-t8-52" fill="white">
                            <use xlink:href="#path-l_rr5pq-t8-51"></use>
                        </mask>
                        <g id="Clip-134"></g>
                        <path d="M20.8069681,49.5341165 L17.6688511,50.0356237 C17.2665284,50.0991479 16.8882621,49.8224831 16.8243882,49.4170981 L16.3266694,46.2550952 C16.2636251,45.8497103 16.5381999,45.4685648 16.9405226,45.4042047 L20.0786396,44.9035334 C20.4809623,44.8391733 20.8592285,45.1158381 20.9231024,45.521223 L21.4199917,48.6832259 C21.4838656,49.0886109 21.2092908,49.4697564 20.8069681,49.5341165" id="Fill-133" fill="#F7BABA" mask="url(#mask-l_rr5pq-t8-52)"></path>
                    </g>
                </g>
            </g>
        </g>
    </g>
</svg>