
<svg width="62px" height="60px" viewBox="0 0 62 60" version="1.1" xmlns="http://www.w3.org/2000/svg" xmlns:xlink="http://www.w3.org/1999/xlink">
    <defs>
        <polygon id="path-secvzv_qx5-1" points="0 0 25.2695537 0 25.2695537 17.5329621 0 17.5329621"></polygon>
    </defs>
    <g id="Page-1" stroke="none" stroke-width="1" fill="none" fill-rule="evenodd">
        <g id="Topics-Menu---rev9" transform="translate(-283.000000, -376.000000)">
            <g id="Group-79" transform="translate(283.000000, 376.000000)">
                <g id="Group-68" transform="translate(0.000000, 6.320072)">
                    <path d="M47.0530279,53.6799284 L21.4793284,53.6799284 C20.4848389,53.6799284 19.6790341,52.8741237 19.6790341,51.8796342 L19.6790341,1.80029428 C19.6790341,0.806670321 20.4848389,0 21.4793284,0 L47.0530279,0 C48.0475174,0 48.8533222,0.806670321 48.8533222,1.80029428 L48.8533222,51.8796342 C48.8533222,52.8741237 48.0475174,53.6799284 47.0530279,53.6799284" id="Fill-1" fill="#000000"></path>
                    <path d="M46.0395834,52.5129396 L22.492946,52.5129396 C21.5581778,52.5129396 20.801708,51.7556043 20.801708,50.8217016 L20.801708,2.85857304 C20.801708,1.92467038 21.5581778,1.16733505 22.492946,1.16733505 L46.0395834,1.16733505 C46.9734861,1.16733505 47.7308214,1.92467038 47.7308214,2.85857304 L47.7308214,50.8217016 C47.7308214,51.7556043 46.9734861,52.5129396 46.0395834,52.5129396 Z" id="Stroke-3" stroke="#434345" stroke-width="0.154"></path>
                    <path d="M34.8691902,3.76148986 C34.8691902,4.1077003 34.5887597,4.38813075 34.2425493,4.38813075 C33.8963388,4.38813075 33.6159084,4.1077003 33.6159084,3.76148986 C33.6159084,3.41527942 33.8963388,3.13484897 34.2425493,3.13484897 C34.5887597,3.13484897 34.8691902,3.41527942 34.8691902,3.76148986" id="Fill-5" fill="#3F3F40"></path>
                    <path d="M33.0802343,3.76148986 C33.0802343,3.91468798 32.956464,4.03845821 32.8032659,4.03845821 C32.6500678,4.03845821 32.525432,3.91468798 32.525432,3.76148986 C32.525432,3.60829174 32.6500678,3.48452151 32.8032659,3.48452151 C32.956464,3.48452151 33.0802343,3.60829174 33.0802343,3.76148986" id="Fill-7" fill="#3F3F40"></path>
                    <path d="M26.2688036,12.6089842 L23.0421223,12.6089842 C22.6284008,12.6089842 22.2925767,12.27316 22.2925767,11.8594386 L22.2925767,8.63275728 C22.2925767,8.2190358 22.6284008,7.88321168 23.0421223,7.88321168 L26.2688036,7.88321168 C26.682525,7.88321168 27.0183492,8.2190358 27.0183492,8.63275728 L27.0183492,11.8594386 C27.0183492,12.27316 26.682525,12.6089842 26.2688036,12.6089842" id="Fill-9" fill="#FBB648"></path>
                    <path d="M32.6425377,12.6089842 L29.4158564,12.6089842 C29.002135,12.6089842 28.6663108,12.27316 28.6663108,11.8594386 L28.6663108,8.63275728 C28.6663108,8.2190358 29.002135,7.88321168 29.4158564,7.88321168 L32.6425377,7.88321168 C33.0562592,7.88321168 33.3920833,8.2190358 33.3920833,8.63275728 L33.3920833,11.8594386 C33.3920833,12.27316 33.0562592,12.6089842 32.6425377,12.6089842" id="Fill-11" fill="#F3783E"></path>
                    <path d="M39.0162719,12.6089842 L35.7895906,12.6089842 C35.3758691,12.6089842 35.040045,12.27316 35.040045,11.8594386 L35.040045,8.63275728 C35.040045,8.2190358 35.3758691,7.88321168 35.7895906,7.88321168 L39.0162719,7.88321168 C39.4299934,7.88321168 39.7658175,8.2190358 39.7658175,8.63275728 L39.7658175,11.8594386 C39.7658175,12.27316 39.4299934,12.6089842 39.0162719,12.6089842" id="Fill-13" fill="#F59184"></path>
                    <path d="M45.3900926,12.6089842 L42.1634113,12.6089842 C41.7496899,12.6089842 41.4138657,12.27316 41.4138657,11.8594386 L41.4138657,8.63275728 C41.4138657,8.2190358 41.7496899,7.88321168 42.1634113,7.88321168 L45.3900926,7.88321168 C45.8038141,7.88321168 46.1396382,8.2190358 46.1396382,8.63275728 L46.1396382,11.8594386 C46.1396382,12.27316 45.8038141,12.6089842 45.3900926,12.6089842" id="Fill-15" fill="#EE403A"></path>
                    <path d="M26.2688036,19.2074089 L23.0421223,19.2074089 C22.6284008,19.2074089 22.2925767,18.8715848 22.2925767,18.4578633 L22.2925767,15.231182 C22.2925767,14.8174605 22.6284008,14.4816364 23.0421223,14.4816364 L26.2688036,14.4816364 C26.682525,14.4816364 27.0183492,14.8174605 27.0183492,15.231182 L27.0183492,18.4578633 C27.0183492,18.8715848 26.682525,19.2074089 26.2688036,19.2074089" id="Fill-17" fill="#5F7455"></path>
                    <path d="M32.6425377,19.2074089 L29.4158564,19.2074089 C29.002135,19.2074089 28.6663108,18.8715848 28.6663108,18.4578633 L28.6663108,15.231182 C28.6663108,14.8174605 29.002135,14.4816364 29.4158564,14.4816364 L32.6425377,14.4816364 C33.0562592,14.4816364 33.3920833,14.8174605 33.3920833,15.231182 L33.3920833,18.4578633 C33.3920833,18.8715848 33.0562592,19.2074089 32.6425377,19.2074089" id="Fill-19" fill="#A2AF58"></path>
                    <path d="M39.0162719,19.2074089 L35.7895906,19.2074089 C35.3758691,19.2074089 35.040045,18.8715848 35.040045,18.4578633 L35.040045,15.231182 C35.040045,14.8174605 35.3758691,14.4816364 35.7895906,14.4816364 L39.0162719,14.4816364 C39.4299934,14.4816364 39.7658175,14.8174605 39.7658175,15.231182 L39.7658175,18.4578633 C39.7658175,18.8715848 39.4299934,19.2074089 39.0162719,19.2074089" id="Fill-21" fill="#9080A8"></path>
                    <path d="M45.3900926,19.2074089 L42.1634113,19.2074089 C41.7496899,19.2074089 41.4138657,18.8715848 41.4138657,18.4578633 L41.4138657,15.231182 C41.4138657,14.8174605 41.7496899,14.4816364 42.1634113,14.4816364 L45.3900926,14.4816364 C45.8038141,14.4816364 46.1396382,14.8174605 46.1396382,15.231182 L46.1396382,18.4578633 C46.1396382,18.8715848 45.8038141,19.2074089 45.3900926,19.2074089" id="Fill-23" fill="#5D76A0"></path>
                    <path d="M26.2688036,25.8058336 L23.0421223,25.8058336 C22.6284008,25.8058336 22.2925767,25.4700095 22.2925767,25.056288 L22.2925767,21.8296068 C22.2925767,21.4158853 22.6284008,21.0800612 23.0421223,21.0800612 L26.2688036,21.0800612 C26.682525,21.0800612 27.0183492,21.4158853 27.0183492,21.8296068 L27.0183492,25.056288 C27.0183492,25.4700095 26.682525,25.8058336 26.2688036,25.8058336" id="Fill-25" fill="#3AA1C7"></path>
                    <path d="M32.6425377,25.8058336 L29.4158564,25.8058336 C29.002135,25.8058336 28.6663108,25.4700095 28.6663108,25.056288 L28.6663108,21.8296068 C28.6663108,21.4158853 29.002135,21.0800612 29.4158564,21.0800612 L32.6425377,21.0800612 C33.0562592,21.0800612 33.3920833,21.4158853 33.3920833,21.8296068 L33.3920833,25.056288 C33.3920833,25.4700095 33.0562592,25.8058336 32.6425377,25.8058336" id="Fill-27" fill="#FBD2B3"></path>
                    <path d="M39.0162719,25.8058336 L35.7895906,25.8058336 C35.3758691,25.8058336 35.040045,25.4700095 35.040045,25.056288 L35.040045,21.8296068 C35.040045,21.4158853 35.3758691,21.0800612 35.7895906,21.0800612 L39.0162719,21.0800612 C39.4299934,21.0800612 39.7658175,21.4158853 39.7658175,21.8296068 L39.7658175,25.056288 C39.7658175,25.4700095 39.4299934,25.8058336 39.0162719,25.8058336" id="Fill-29" fill="#7E5B59"></path>
                    <path d="M45.3900061,25.8058336 L42.1633248,25.8058336 C41.7496033,25.8058336 41.4137792,25.4700095 41.4137792,25.056288 L41.4137792,21.8296068 C41.4137792,21.4158853 41.7496033,21.0800612 42.1633248,21.0800612 L45.3900061,21.0800612 C45.8037275,21.0800612 46.1395517,21.4158853 46.1395517,21.8296068 L46.1395517,25.056288 C46.1395517,25.4700095 45.8037275,25.8058336 45.3900061,25.8058336" id="Fill-31" fill="#B25F46"></path>
                    <path d="M26.2688036,32.4042584 L23.0421223,32.4042584 C22.6284008,32.4042584 22.2925767,32.0684343 22.2925767,31.6547128 L22.2925767,28.4280315 C22.2925767,28.01431 22.6284008,27.6784859 23.0421223,27.6784859 L26.2688036,27.6784859 C26.682525,27.6784859 27.0183492,28.01431 27.0183492,28.4280315 L27.0183492,31.6547128 C27.0183492,32.0684343 26.682525,32.4042584 26.2688036,32.4042584" id="Fill-33" fill="#DDCF21"></path>
                    <path d="M32.6425377,32.4042584 L29.4158564,32.4042584 C29.002135,32.4042584 28.6663108,32.0684343 28.6663108,31.6547128 L28.6663108,28.4280315 C28.6663108,28.01431 29.002135,27.6784859 29.4158564,27.6784859 L32.6425377,27.6784859 C33.0562592,27.6784859 33.3920833,28.01431 33.3920833,28.4280315 L33.3920833,31.6547128 C33.3920833,32.0684343 33.0562592,32.4042584 32.6425377,32.4042584" id="Fill-35" fill="#A43157"></path>
                    <path d="M39.0162719,32.4042584 L35.7895906,32.4042584 C35.3758691,32.4042584 35.040045,32.0684343 35.040045,31.6547128 L35.040045,28.4280315 C35.040045,28.01431 35.3758691,27.6784859 35.7895906,27.6784859 L39.0162719,27.6784859 C39.4299934,27.6784859 39.7658175,28.01431 39.7658175,28.4280315 L39.7658175,31.6547128 C39.7658175,32.0684343 39.4299934,32.4042584 39.0162719,32.4042584" id="Fill-37" fill="#EA246E"></path>
                    <path d="M45.3900061,32.4042584 L42.1633248,32.4042584 C41.7496033,32.4042584 41.4137792,32.0684343 41.4137792,31.6547128 L41.4137792,28.4280315 C41.4137792,28.01431 41.7496033,27.6784859 42.1633248,27.6784859 L45.3900061,27.6784859 C45.8037275,27.6784859 46.1395517,28.01431 46.1395517,28.4280315 L46.1395517,31.6547128 C46.1395517,32.0684343 45.8037275,32.4042584 45.3900061,32.4042584" id="Fill-39" fill="#78A7B2"></path>
                    <path d="M26.2688036,39.0026831 L23.0421223,39.0026831 C22.6284008,39.0026831 22.2925767,38.666859 22.2925767,38.2531375 L22.2925767,35.0264562 C22.2925767,34.6127348 22.6284008,34.2769106 23.0421223,34.2769106 L26.2688036,34.2769106 C26.682525,34.2769106 27.0183492,34.6127348 27.0183492,35.0264562 L27.0183492,38.2531375 C27.0183492,38.666859 26.682525,39.0026831 26.2688036,39.0026831" id="Fill-41" fill="#624D7D"></path>
                    <path d="M32.6425377,39.0026831 L29.4158564,39.0026831 C29.002135,39.0026831 28.6663108,38.666859 28.6663108,38.2531375 L28.6663108,35.0264562 C28.6663108,34.6127348 29.002135,34.2769106 29.4158564,34.2769106 L32.6425377,34.2769106 C33.0562592,34.2769106 33.3920833,34.6127348 33.3920833,35.0264562 L33.3920833,38.2531375 C33.3920833,38.666859 33.0562592,39.0026831 32.6425377,39.0026831" id="Fill-43" fill="#3E7778"></path>
                    <path d="M39.0162719,39.0026831 L35.7895906,39.0026831 C35.3758691,39.0026831 35.040045,38.666859 35.040045,38.2531375 L35.040045,35.0264562 C35.040045,34.6127348 35.3758691,34.2769106 35.7895906,34.2769106 L39.0162719,34.2769106 C39.4299934,34.2769106 39.7658175,34.6127348 39.7658175,35.0264562 L39.7658175,38.2531375 C39.7658175,38.666859 39.4299934,39.0026831 39.0162719,39.0026831" id="Fill-45" fill="#FABB70"></path>
                    <path d="M45.3900061,39.0026831 L42.1633248,39.0026831 C41.7496033,39.0026831 41.4137792,38.666859 41.4137792,38.2531375 L41.4137792,35.0264562 C41.4137792,34.6127348 41.7496033,34.2769106 42.1633248,34.2769106 L45.3900061,34.2769106 C45.8037275,34.2769106 46.1395517,34.6127348 46.1395517,35.0264562 L46.1395517,38.2531375 C46.1395517,38.666859 45.8037275,39.0026831 45.3900061,39.0026831" id="Fill-47" fill="#EE6D89"></path>
                    <path d="M26.2688036,45.6011079 L23.0421223,45.6011079 C22.6284008,45.6011079 22.2925767,45.2652837 22.2925767,44.8515623 L22.2925767,41.624881 C22.2925767,41.2111595 22.6284008,40.8753354 23.0421223,40.8753354 L26.2688036,40.8753354 C26.682525,40.8753354 27.0183492,41.2111595 27.0183492,41.624881 L27.0183492,44.8515623 C27.0183492,45.2652837 26.682525,45.6011079 26.2688036,45.6011079" id="Fill-49" fill="#F9AC1E"></path>
                    <path d="M32.6425377,45.6011079 L29.4158564,45.6011079 C29.002135,45.6011079 28.6663108,45.2652837 28.6663108,44.8515623 L28.6663108,41.624881 C28.6663108,41.2111595 29.002135,40.8753354 29.4158564,40.8753354 L32.6425377,40.8753354 C33.0562592,40.8753354 33.3920833,41.2111595 33.3920833,41.624881 L33.3920833,44.8515623 C33.3920833,45.2652837 33.0562592,45.6011079 32.6425377,45.6011079" id="Fill-51" fill="#F7BABA"></path>
                    <g id="Group-55" transform="translate(0.000000, 21.778021)">
                        <mask id="mask-secvzv_qx5-2" fill="white">
                            <use xlink:href="#path-secvzv_qx5-1"></use>
                        </mask>
                        <g id="Clip-54"></g>
                        <path d="M1.28063241,5.15680448 L20.7757422,5.15680448 C24.2136118,5.15680448 25.2695537,0 25.2695537,0 L25.2695537,6.4377831 L25.2695537,8.7859554 L25.2695537,16.252849 C25.2695537,16.9599838 24.6957099,17.5329621 23.9885751,17.5329621 L1.28063241,17.5329621 C0.573497591,17.5329621 -0.000346210438,16.9599838 -0.000346210438,16.252849 L-0.000346210438,6.4377831 C-0.000346210438,5.72978275 0.573497591,5.15680448 1.28063241,5.15680448" id="Fill-53" fill="#FFFFFF" mask="url(#mask-secvzv_qx5-2)"></path>
                    </g>
                    <path d="M20.1511786,34.6669167 C20.1511786,34.7361588 20.0888607,34.7976111 20.0204841,34.7976111 L19.1999654,34.7976111 C19.1237991,34.7976111 19.0692709,34.7361588 19.0692709,34.6669167 L19.0692709,32.8545051 L17.0976025,32.8545051 L17.0976025,34.6669167 C17.0976025,34.7361588 17.0422088,34.7976111 16.9669081,34.7976111 L16.1463893,34.7976111 C16.0780128,34.7976111 16.0156949,34.7361588 16.0156949,34.6669167 L16.0156949,30.1038631 C16.0156949,30.034621 16.0780128,29.9731687 16.1463893,29.9731687 L16.9669081,29.9731687 C17.0422088,29.9731687 17.0976025,30.034621 17.0976025,30.1038631 L17.0976025,31.840974 L19.0692709,31.840974 L19.0692709,30.1038631 C19.0692709,30.034621 19.1237991,29.9731687 19.1999654,29.9731687 L20.0204841,29.9731687 C20.0888607,29.9731687 20.1511786,30.034621 20.1511786,30.1038631 L20.1511786,34.6669167 Z" id="Fill-56" fill="#FFFFFF"></path>
                    <path d="M14.3752633,33.0333228 C14.3475664,32.8541589 14.1891752,32.709616 14.003087,32.709616 C13.8239231,32.709616 13.6516834,32.8541589 13.637835,33.0333228 L14.3752633,33.0333228 Z M15.4026427,33.4193474 C15.4026427,34.2121693 14.7820605,34.866507 13.9615418,34.866507 C13.5270477,34.866507 13.1825683,34.71504 12.941952,34.4735582 C12.8796342,34.4121058 12.8934826,34.3290153 12.9350278,34.2736216 L13.2795072,33.8607657 C13.3210525,33.8122962 13.389429,33.8122962 13.4517469,33.8607657 C13.5616687,33.9429907 13.7616053,34.0260812 13.933845,34.0260812 C14.2921728,34.0260812 14.4445054,33.7569026 14.465278,33.5708145 L12.8103921,33.5708145 C12.7489397,33.5708145 12.6866219,33.522345 12.6796976,33.4539684 C12.6727734,33.405499 12.6658492,33.3154843 12.6658492,33.2678803 C12.6658492,32.5096795 13.272583,31.9721878 13.9753902,31.9721878 C14.7889847,31.9721878 15.4026427,32.6403739 15.4026427,33.4193474 L15.4026427,33.4193474 Z" id="Fill-58" fill="#FFFFFF"></path>
                    <path d="M12.1696431,34.6669167 C12.1696431,34.7361588 12.1073252,34.7976111 12.0389487,34.7976111 L11.2807478,34.7976111 C11.2115057,34.7976111 11.1491878,34.7361588 11.1491878,34.6669167 L11.1491878,30.1038631 C11.1491878,30.034621 11.2115057,29.9731687 11.2807478,29.9731687 L12.0389487,29.9731687 C12.1073252,29.9731687 12.1696431,30.034621 12.1696431,30.1038631 L12.1696431,34.6669167 Z" id="Fill-60" fill="#FFFFFF"></path>
                    <path d="M10.4051816,34.6669167 C10.4051816,34.7361588 10.3428637,34.7976111 10.2744872,34.7976111 L9.51628632,34.7976111 C9.44704423,34.7976111 9.38472635,34.7361588 9.38472635,34.6669167 L9.38472635,30.1038631 C9.38472635,30.034621 9.44704423,29.9731687 9.51628632,29.9731687 L10.2744872,29.9731687 C10.3428637,29.9731687 10.4051816,30.034621 10.4051816,30.1038631 L10.4051816,34.6669167 Z" id="Fill-62" fill="#FFFFFF"></path>
                    <path d="M7.96526355,33.4124232 C7.96526355,33.1094891 7.72378177,32.8610831 7.42084764,32.8610831 C7.11704798,32.8610831 6.87643172,33.1094891 6.87643172,33.4124232 C6.87643172,33.7222815 7.11704798,33.9776117 7.42084764,33.9776117 C7.72378177,33.9776117 7.96526355,33.7222815 7.96526355,33.4124232 M8.85415885,33.4124232 C8.85415885,34.2052451 8.20674533,34.866507 7.42084764,34.866507 C6.63494994,34.866507 5.9866709,34.2052451 5.9866709,33.4124232 C5.9866709,32.6334497 6.63494994,31.9721878 7.42084764,31.9721878 C8.20674533,31.9721878 8.85415885,32.6334497 8.85415885,33.4124232" id="Fill-64" fill="#FFFFFF"></path>
                    <path d="M4.94630853,32.9230547 L4.65722282,32.9230547 C4.59490494,32.9230547 4.53258706,32.8676611 4.52566285,32.8131329 L4.18810767,30.8760855 L4.18810767,30.1040362 C4.18810767,30.0347941 4.25042555,29.9733418 4.31880211,29.9733418 L5.28386371,29.9733418 C5.3531058,29.9733418 5.41542368,30.0347941 5.41542368,30.1040362 L5.41542368,30.8899339 L5.07700297,32.8131329 C5.07007876,32.8676611 5.00862641,32.9230547 4.94630853,32.9230547 M5.4561034,34.2187473 C5.4561034,34.5701509 5.16009348,34.8670263 4.80868988,34.8670263 C4.45036208,34.8670263 4.14656242,34.5701509 4.14656242,34.2187473 C4.14656242,33.8604195 4.45036208,33.5574854 4.80868988,33.5574854 C5.16009348,33.5574854 5.4561034,33.8604195 5.4561034,34.2187473" id="Fill-66" fill="#FFFFFF"></path>
                </g>
                <text id="Hi!" font-family="Helvetica-Bold, Helvetica" font-size="10" font-weight="bold" letter-spacing="-0.0231404959" fill="#000000">
                    <tspan x="7.52046969" y="42.9137633">H</tspan>
                    <tspan x="14.7190089" y="42.9137633" letter-spacing="0.0368595041">i</tspan>
                    <tspan x="17.5341887" y="42.9137633">!</tspan>
                </text>
                <g id="Group-78" transform="translate(15.266149, 0.000000)">
                    <path d="M10.6736678,12.5683044 L1.81587375,12.5683044 C0.812729004,12.5683044 0,11.8784801 0,11.0268025 L0,1.54150198 C0,0.689824298 0.812729004,0 1.81587375,0 L14.6576844,0 C15.6608292,0 16.4735582,0.689824298 16.4735582,1.54150198 L16.4735582,8.59207755 L16.4735582,11.0268025 L16.4735582,18.2193243 C16.4735582,18.2193243 15.1112201,12.5683044 10.6736678,12.5683044" id="Fill-69" fill="#FFFFFF"></path>
                    <path d="M33.2774011,42.7220219 L44.6105998,42.7220219 C45.5765269,42.7220219 46.359828,43.4118462 46.359828,44.2626583 L46.359828,53.3134647 C46.359828,54.1642769 45.5765269,54.8541012 44.6105998,54.8541012 L29.4396584,54.8541012 C28.4728658,54.8541012 27.6904302,54.1642769 27.6904302,53.3134647 L27.6904302,46.6973832 L27.6904302,44.2626583 L27.6904302,37.072733 C27.6904302,37.072733 29.0025677,42.7220219 33.2774011,42.7220219" id="Fill-71" fill="#FFFFFF"></path>
                    <polygon id="Fill-73" fill="#000000" points="30.3436139 53.4713367 43.3853611 53.4713367 43.3853611 44.2301145 30.3436139 44.2301145"></polygon>
                    <polygon id="Stroke-75" stroke="#FFFFFF" stroke-width="0.865" points="30.3436139 53.4713367 43.3853611 53.4713367 43.3853611 44.2301145 30.3436139 44.2301145"></polygon>
                    <polyline id="Stroke-76" stroke="#FFFFFF" stroke-width="0.865" points="31.2954329 44.6768991 36.6037045 49.5212487 44.2627449 44.8257696"></polyline>
                    <path d="M12.5864805,5.84057009 C12.6721676,5.59908831 12.720637,5.34029601 12.7240991,5.07025187 C12.7362165,4.09740054 11.9641672,3.13233894 11.0726753,2.79738034 C9.8176625,2.32480309 9.26112922,3.15484262 8.47176942,3.95891636 C7.81570064,3.25524365 7.3465855,2.48925305 6.28458498,2.65283748 C5.18277026,2.8224806 4.13548368,3.80658377 4.12076974,4.95946453 C4.11730764,5.2303742 4.15885289,5.49003202 4.23848129,5.73324486 C4.3085889,6.01540636 4.41764519,6.29756787 4.55439832,6.57540175 C5.27278497,8.03294769 6.97440928,9.39009261 7.80012117,10.0660685 C8.07276189,10.2902398 8.27010184,10.4382447 8.36011656,10.4927729 C8.43282075,10.4417068 8.6336228,10.2997605 8.91578431,10.0807824 C9.7579412,9.42557918 11.4941865,8.11257609 12.2489253,6.67407172 C12.3934682,6.39969995 12.5094487,6.12013502 12.5864805,5.84057009" id="Fill-77" fill="#000000"></path>
                </g>
            </g>
        </g>
    </g>
</svg>